<?xml version="1.0" standalone="no"?>
<!DOCTYPE svg PUBLIC "-//W3C//DTD SVG 1.1//EN" "http://www.w3.org/Graphics/SVG/1.1/DTD/svg11.dtd" >
<svg xmlns="http://www.w3.org/2000/svg" xmlns:xlink="http://www.w3.org/1999/xlink" version="1.1">
<metadata>
Created by FontForge 20161013 at Tue Jul 14 21:21:32 2015
 By ,,,
Copyright (c) 2010-2012 by The Entente (AS&#38;EH). All rights reserved. Re-release (Version 2.01) July 2015. Trial version for testing, previewing and presentation purposes only. Full licence required for commercial use.
</metadata>
<defs>
<font id="ApercuTrial-Black" horiz-adv-x="574" >
  <font-face 
    font-family="Apercu Trial Black"
    font-weight="900"
    font-stretch="normal"
    units-per-em="1000"
    panose-1="2 0 5 4 3 0 0 2 0 4"
    ascent="800"
    descent="-200"
    x-height="504"
    cap-height="700"
    bbox="-36 -212 1188 790"
    underline-thickness="50"
    underline-position="-200"
    unicode-range="U+000D-FB02"
  />
<missing-glyph horiz-adv-x="641" 
d="M81 0v700h479v-700h-479zM428 584h-215v-468h215v468z" />
    <glyph glyph-name="fi" unicode="fi" horiz-adv-x="593" 
d="M29 378v126h54v9q0 93 68.5 144t175.5 51q102 0 172 -38l-50 -124q-47 28 -110 28q-92 0 -92 -66v-4h283v-504h-164v378h-119v-378h-164v378h-54z" />
    <glyph glyph-name="fl" unicode="fl" horiz-adv-x="653" 
d="M29 378v126h54v9q0 95 51 145t143 50h304v-708h-164v580h-118q-25 0 -38.5 -15t-13.5 -41v-20h98v-126h-98v-378h-164v378h-54z" />
    <glyph glyph-name=".notdef" horiz-adv-x="641" 
d="M81 0v700h479v-700h-479zM428 584h-215v-468h215v468z" />
    <glyph glyph-name=".null" horiz-adv-x="0" 
 />
    <glyph glyph-name="nonmarkingreturn" horiz-adv-x="333" 
 />
    <glyph glyph-name="NULL" horiz-adv-x="0" 
 />
    <glyph glyph-name="NULL" horiz-adv-x="0" 
 />
    <glyph glyph-name="CR" unicode="&#xd;" horiz-adv-x="248" 
 />
    <glyph glyph-name="space" unicode=" " horiz-adv-x="248" 
 />
    <glyph glyph-name="exclam" unicode="!" horiz-adv-x="371" 
d="M90 700h196l-32 -450h-132zM99 81q0 38 25.5 63.5t63.5 25.5t63.5 -25.5t25.5 -63.5t-25.5 -63.5t-63.5 -25.5t-63.5 25.5t-25.5 63.5z" />
    <glyph glyph-name="quotedbl" unicode="&#x22;" horiz-adv-x="515" 
d="M309 449l-35 259h169l-35 -259h-99zM107 449l-35 259h169l-35 -259h-99z" />
    <glyph glyph-name="numbersign" unicode="#" horiz-adv-x="740" 
d="M59 301h135l20 98h-115v118h139l37 183h120l-37 -183h92l38 183h120l-38 -183h111v-118h-135l-20 -98h115v-118h-139l-37 -183h-120l37 183h-92l-38 -183h-120l38 183h-111v118zM334 399l-20 -98h92l20 98h-92z" />
    <glyph glyph-name="dollar" unicode="$" horiz-adv-x="558" 
d="M493 577l-132 -87q-33 70 -77 70q-20 0 -32 -11.5t-12 -30.5q0 -27 29.5 -48.5t71 -40.5t83 -42.5t71 -67t29.5 -102.5q0 -88 -45 -144.5t-125 -73.5v-89h-138v90q-73 17 -121 68t-63 120l138 87q34 -131 119 -131q60 0 60 55q0 23 -15.5 42t-39.5 33t-53.5 28t-59.5 32
t-54 41t-39.5 59t-15.5 81q0 66 39 116.5t105 68.5v90h138v-91q90 -23 139 -122z" />
    <glyph glyph-name="percent" unicode="%" horiz-adv-x="836" 
d="M47 548q0 69 46.5 114.5t121.5 45.5t121.5 -45.5t46.5 -114.5t-46.5 -114.5t-121.5 -45.5t-121.5 45.5t-46.5 114.5zM163 548q0 -24 14.5 -39t37.5 -15t37.5 15t14.5 39t-14.5 39t-37.5 15t-37.5 -15t-14.5 -39zM453 152q0 69 46.5 114.5t121.5 45.5t121.5 -45.5
t46.5 -114.5t-46.5 -114.5t-121.5 -45.5t-121.5 45.5t-46.5 114.5zM569 152q0 -24 14.5 -39t37.5 -15t37.5 15t14.5 39t-14.5 39t-37.5 15t-37.5 -15t-14.5 -39zM648 745l88 -70l-538 -719l-88 70z" />
    <glyph glyph-name="ampersand" unicode="&#x26;" horiz-adv-x="670" 
d="M594 279q-21 -84 -48 -132l113 -147h-175l-34 45q-79 -53 -177 -53q-102 0 -168.5 57.5t-66.5 156.5q0 132 132 213q-46 65 -46 141q0 63 47.5 105.5t127.5 42.5q78 0 124.5 -42.5t46.5 -101.5q0 -62 -25.5 -101.5t-81.5 -77.5l94 -123q25 49 45 123zM285 128q46 0 85 23
l-125 167q-53 -39 -53 -102q0 -36 26 -62t67 -26zM264 550q0 -31 23 -65q46 27 46 67q0 14 -9.5 23t-24.5 9t-25 -9.5t-10 -24.5z" />
    <glyph glyph-name="quotesingle" unicode="'" horiz-adv-x="313" 
d="M107 449l-35 259h169l-35 -259h-99z" />
    <glyph glyph-name="parenleft" unicode="(" horiz-adv-x="321" 
d="M163 750h136q-47 -90 -70.5 -183t-23.5 -217q0 -129 23 -218.5t71 -181.5h-136q-32 58 -51 102t-36.5 124.5t-17.5 173.5t17.5 173.5t36.5 124.5t51 102z" />
    <glyph glyph-name="parenright" unicode=")" horiz-adv-x="321" 
d="M22 750h136q32 -58 51 -102t36.5 -124.5t17.5 -173.5t-17.5 -173.5t-36.5 -124.5t-51 -102h-136q48 92 71 181.5t23 218.5q0 124 -23.5 217t-70.5 183z" />
    <glyph glyph-name="asterisk" unicode="*" horiz-adv-x="490" 
d="M80 629l109 -35v114h112v-114l109 35l35 -107l-108 -35l67 -93l-91 -66l-68 94l-68 -94l-91 66l67 93l-108 35z" />
    <glyph glyph-name="plus" unicode="+" horiz-adv-x="594" 
d="M227 565h140v-178h178v-140h-178v-178h-140v178h-178v140h178v178z" />
    <glyph glyph-name="comma" unicode="," horiz-adv-x="374" 
d="M52 -156l71 302h193l-159 -302h-105z" />
    <glyph glyph-name="hyphen" unicode="-" horiz-adv-x="511" 
d="M59 247v140h393v-140h-393z" />
    <glyph glyph-name="period" unicode="." horiz-adv-x="330" 
d="M72 85q0 40 26.5 66.5t66.5 26.5t66.5 -26.5t26.5 -66.5t-26.5 -66.5t-66.5 -26.5t-66.5 26.5t-26.5 66.5z" />
    <glyph glyph-name="slash" unicode="/" horiz-adv-x="585" 
d="M444 750h156l-436 -800h-156z" />
    <glyph glyph-name="zero" unicode="0" horiz-adv-x="632" 
d="M316 708q129 0 199.5 -94.5t70.5 -263.5t-70.5 -263.5t-199.5 -94.5t-199.5 94.5t-70.5 263.5t70.5 263.5t199.5 94.5zM316 564q-55 0 -84.5 -55.5t-29.5 -158.5t29.5 -158.5t84.5 -55.5t84.5 55.5t29.5 158.5t-29.5 158.5t-84.5 55.5z" />
    <glyph glyph-name="one" unicode="1" horiz-adv-x="430" 
d="M263 700h89v-700h-162v482l-128 -76v178z" />
    <glyph glyph-name="two" unicode="2" horiz-adv-x="594" 
d="M58 0v74l256 313q47 59 47 109q0 31 -19 51.5t-50 20.5q-68 0 -80 -84l-147 30q11 83 69.5 138.5t157.5 55.5q105 0 164.5 -58t59.5 -149q0 -86 -80 -186l-139 -175h234v-140h-473z" />
    <glyph glyph-name="three" unicode="3" horiz-adv-x="600" 
d="M51 201l151 22q22 -91 98 -91q38 0 63.5 25.5t25.5 68.5t-26.5 70.5t-67.5 27.5q-35 0 -60 -14l-66 93l118 159h-204v138h417v-66l-150 -199q89 0 141.5 -54t52.5 -154q0 -107 -69 -171t-175 -64q-110 0 -175 58.5t-74 150.5z" />
    <glyph glyph-name="four" unicode="4" horiz-adv-x="630" 
d="M352 0v114h-298v86l292 500h156v-448h82v-138h-82v-114h-150zM229 252h123v218z" />
    <glyph glyph-name="five" unicode="5" horiz-adv-x="592" 
d="M65 188l147 26q6 -40 31 -58t57 -18q35 0 57 24.5t22 69.5t-22.5 71t-62.5 26q-30 0 -57 -15t-41 -40l-120 26l37 400h386v-138h-258l-16 -118q38 20 97 20q106 0 162 -63t56 -169t-67.5 -173t-175.5 -67q-90 0 -156.5 55t-75.5 141z" />
    <glyph glyph-name="six" unicode="6" horiz-adv-x="597" 
d="M315 448q104 0 168 -63t64 -165q0 -100 -67 -164t-173 -64q-108 0 -176 64.5t-68 163.5q0 72 39 141l194 347h171zM307 310q-37 0 -62 -24t-25 -66q0 -40 25 -65t62 -25t62 25t25 65q0 42 -25 66t-62 24z" />
    <glyph glyph-name="seven" unicode="7" horiz-adv-x="521" 
d="M499 700v-72l-254 -628h-167l229 562h-262v138h454z" />
    <glyph glyph-name="eight" unicode="8" horiz-adv-x="602" 
d="M301 708q91 0 150 -55.5t59 -135.5q0 -86 -65 -140q94 -53 94 -168q0 -99 -69.5 -158t-168.5 -59t-168.5 59t-69.5 158q0 115 94 168q-65 54 -65 140q0 80 59 135.5t150 55.5zM301 300q-38 0 -63 -23t-25 -64t25 -64t63 -23t63 23t25 64t-25 64t-63 23zM301 584
q-33 0 -52 -20.5t-19 -53.5t19 -53.5t52 -20.5t52 20.5t19 53.5t-19 53.5t-52 20.5z" />
    <glyph glyph-name="nine" unicode="9" horiz-adv-x="597" 
d="M144 -8l152 260q-104 0 -168 63t-64 165q0 100 67 164t173 64q112 0 178 -64t66 -164q0 -73 -51 -163l-182 -325h-171zM304 390q37 0 62 24t25 66q0 40 -25 65t-62 25t-62 -25t-25 -65q0 -42 25 -66t62 -24z" />
    <glyph glyph-name="colon" unicode=":" horiz-adv-x="340" 
d="M74 85q0 40 26.5 66.5t66.5 26.5t66.5 -26.5t26.5 -66.5t-26.5 -66.5t-66.5 -26.5t-66.5 26.5t-26.5 66.5zM74 419q0 40 26.5 66.5t66.5 26.5t66.5 -26.5t26.5 -66.5t-26.5 -66.5t-66.5 -26.5t-66.5 26.5t-26.5 66.5z" />
    <glyph glyph-name="semicolon" unicode=";" horiz-adv-x="351" 
d="M11 -156l71 302h193l-159 -302h-105zM77 419q0 40 26.5 66.5t66.5 26.5t66.5 -26.5t26.5 -66.5t-26.5 -66.5t-66.5 -26.5t-66.5 26.5t-26.5 66.5z" />
    <glyph glyph-name="less" unicode="&#x3c;" horiz-adv-x="499" 
d="M41 244v132l412 214v-168l-225 -112l225 -112v-168z" />
    <glyph glyph-name="equal" unicode="=" horiz-adv-x="627" 
d="M81 282h465v-140h-465v140zM81 478h465v-140h-465v140z" />
    <glyph glyph-name="greater" unicode="&#x3e;" horiz-adv-x="499" 
d="M458 376v-132l-412 -214v168l225 112l-225 112v168z" />
    <glyph glyph-name="question" unicode="?" horiz-adv-x="470" 
d="M390 318q-20 -55 -56 -80t-94 -25q-63 0 -105 35.5t-42 92.5q0 52 28 87.5t90 57.5q43 15 60 28.5t17 32.5q0 16 -13.5 27.5t-35.5 11.5q-25 0 -40 -16.5t-18 -41.5l-143 24q12 66 65.5 111t134.5 45q89 0 141.5 -42t52.5 -110q0 -67 -37.5 -102.5t-113.5 -61.5
q-31 -10 -43 -20.5t-12 -24.5q0 -9 7 -15t16 -6q24 0 36 32zM151 81q0 38 25.5 63.5t63.5 25.5t63.5 -25.5t25.5 -63.5t-25.5 -63.5t-63.5 -25.5t-63.5 25.5t-25.5 63.5z" />
    <glyph glyph-name="at" unicode="@" horiz-adv-x="908" 
d="M241 296q0 93 59 156.5t163 63.5q58 0 97 -32l10 25h95l-20 -219q-1 -12 -1 -16q0 -44 34 -44q25 0 40 32.5t15 94.5q0 115 -72 180t-190 65q-115 0 -197 -80t-82 -221q0 -57 18 -104.5t47.5 -78.5t67.5 -52.5t77 -30.5t78 -9q64 0 110.5 10t118.5 42l42 -115
q-129 -57 -281 -57q-189 0 -302.5 111t-113.5 284q0 188 118.5 302.5t303.5 114.5q183 0 285.5 -101t102.5 -265q0 -115 -54.5 -179.5t-141.5 -64.5q-36 0 -66.5 16.5t-42.5 40.5q-46 -57 -134 -57q-84 0 -134 52.5t-50 135.5zM460 394q-32 0 -56 -27t-24 -72q0 -31 17 -48
t44 -17q34 0 57.5 28t23.5 69q0 32 -16.5 49.5t-45.5 17.5z" />
    <glyph glyph-name="A" unicode="A" horiz-adv-x="654" 
d="M465 0l-45 149h-186l-45 -149h-184l237 700h170l237 -700h-184zM327 465l-48 -164h96z" />
    <glyph glyph-name="B" unicode="B" horiz-adv-x="652" 
d="M81 700h280q94 0 155.5 -47.5t61.5 -132.5q0 -46 -21.5 -83t-51.5 -55q48 -21 78.5 -64.5t30.5 -106.5q0 -99 -69 -155t-179 -56h-285v700zM343 562h-88v-120h91q72 0 72 60t-75 60zM354 294h-99v-142h99q95 0 95 70q0 72 -95 72z" />
    <glyph glyph-name="C" unicode="C" horiz-adv-x="712" 
d="M684 493l-160 -46q-40 109 -145 109q-68 0 -114.5 -54.5t-46.5 -151.5q0 -98 46.5 -152t114.5 -54q105 0 145 109l158 -44q-30 -107 -108 -162t-193 -55q-146 0 -243.5 94.5t-97.5 263.5q0 168 98.5 263t242.5 95q120 0 199 -57t104 -158z" />
    <glyph glyph-name="D" unicode="D" horiz-adv-x="704" 
d="M318 0h-237v700h237q68 0 129 -21t110 -62t78 -109.5t29 -157.5t-29 -157.5t-78 -109.5t-110 -62t-129 -21zM255 152h41q82 0 136 46t54 152t-54 152t-136 46h-41v-396z" />
    <glyph glyph-name="E" unicode="E" horiz-adv-x="605" 
d="M81 700h476v-152h-298v-99h234v-152h-234v-145h308v-152h-486v700z" />
    <glyph glyph-name="F" unicode="F" horiz-adv-x="589" 
d="M81 700h481v-152h-303v-112h242v-152h-242v-284h-178v700z" />
    <glyph glyph-name="G" unicode="G" horiz-adv-x="738" 
d="M542 0l-9 61q-57 -69 -166 -69q-137 0 -232 94t-95 264q0 115 49 198t125 121.5t169 38.5q117 0 195.5 -59t105.5 -168l-157 -41q-11 52 -51 84t-95 32q-75 0 -124.5 -56t-49.5 -150t49 -150t122 -56q105 0 135 89h-118v130h282v-363h-135z" />
    <glyph glyph-name="H" unicode="H" horiz-adv-x="750" 
d="M81 0v700h178v-244h232v244h178v-700h-178v292h-232v-292h-178z" />
    <glyph glyph-name="I" unicode="I" horiz-adv-x="340" 
d="M259 700v-700h-178v700h178z" />
    <glyph glyph-name="J" unicode="J" horiz-adv-x="550" 
d="M2 198l160 29q11 -83 74 -83q79 0 79 106v450h168v-454q0 -128 -65.5 -191t-181.5 -63q-102 0 -162.5 56.5t-71.5 149.5z" />
    <glyph glyph-name="K" unicode="K" horiz-adv-x="719" 
d="M259 700v-235l216 235h220l-284 -313l304 -387h-225l-231 303v-303h-178v700h178z" />
    <glyph glyph-name="L" unicode="L" horiz-adv-x="560" 
d="M81 700h178v-548h288v-152h-466v700z" />
    <glyph glyph-name="M" unicode="M" horiz-adv-x="824" 
d="M81 0v700h188l143 -384l143 384h188v-700h-160v360l-108 -296h-126l-108 296v-360h-160z" />
    <glyph glyph-name="N" unicode="N" horiz-adv-x="726" 
d="M485 700h160v-700h-173l-231 418v-418h-160v700h173l231 -418v418z" />
    <glyph glyph-name="O" unicode="O" horiz-adv-x="768" 
d="M384 708q143 0 243.5 -93t100.5 -265t-100.5 -265t-243.5 -93t-243.5 93t-100.5 265t100.5 265t243.5 93zM384 556q-72 0 -119 -52.5t-47 -153.5t47 -153.5t119 -52.5t119 52.5t47 153.5t-47 153.5t-119 52.5z" />
    <glyph glyph-name="P" unicode="P" horiz-adv-x="620" 
d="M369 266h-110v-266h-178v700h288q110 0 171.5 -58.5t61.5 -158.5t-61.5 -158.5t-171.5 -58.5zM357 412q37 0 56 19t19 52t-19 52t-56 19h-98v-142h98z" />
    <glyph glyph-name="Q" unicode="Q" horiz-adv-x="768" 
d="M384 708q143 0 243.5 -93t100.5 -265q0 -115 -48 -198l62 -62l-107 -106l-60 60q-85 -52 -191 -52q-143 0 -243.5 93t-100.5 265t100.5 265t243.5 93zM384 556q-72 0 -119 -52.5t-47 -153.5t47 -153.5t119 -52.5q41 0 73 18l-73 72l107 106l53 -53q6 29 6 63
q0 101 -47 153.5t-119 52.5z" />
    <glyph glyph-name="R" unicode="R" horiz-adv-x="660" 
d="M467 0l-179 288h-35v-288h-172v700h277q103 0 163 -55t60 -144q0 -62 -30.5 -113t-85.5 -77l193 -311h-191zM338 436q79 0 79 65t-79 65h-85v-130h85z" />
    <glyph glyph-name="S" unicode="S" horiz-adv-x="558" 
d="M493 577l-132 -87q-33 70 -77 70q-20 0 -32 -11.5t-12 -30.5q0 -27 29.5 -48.5t71 -40.5t83 -42.5t71 -67t29.5 -102.5q0 -105 -63.5 -165t-174.5 -60q-102 0 -169 55.5t-85 140.5l138 87q34 -131 119 -131q60 0 60 55q0 23 -15.5 42t-39.5 33t-53.5 28t-59.5 32t-54 41
t-39.5 59t-15.5 81q0 82 57.5 137.5t148.5 55.5q79 0 130 -31t85 -100z" />
    <glyph glyph-name="T" unicode="T" 
d="M8 548v152h558v-152h-190v-548h-178v548h-190z" />
    <glyph glyph-name="U" unicode="U" horiz-adv-x="672" 
d="M611 700v-434q0 -136 -74 -205t-201 -69t-201 69t-74 205v434h164v-432q0 -63 30.5 -92.5t80.5 -29.5t80.5 29.5t30.5 92.5v432h164z" />
    <glyph glyph-name="V" unicode="V" horiz-adv-x="640" 
d="M404 0h-168l-235 700h178l141 -454l141 454h178z" />
    <glyph glyph-name="W" unicode="W" horiz-adv-x="954" 
d="M759 700h178l-183 -700h-172l-105 348l-105 -348h-172l-183 700h178l98 -439l110 365h148l110 -365z" />
    <glyph glyph-name="X" unicode="X" horiz-adv-x="624" 
d="M406 700h184l-185 -322l212 -378h-188l-117 210l-117 -210h-188l214 378l-187 322h184l94 -166z" />
    <glyph glyph-name="Y" unicode="Y" horiz-adv-x="586" 
d="M0 700h186l107 -232l107 232h186l-204 -402v-298h-178v298z" />
    <glyph glyph-name="Z" unicode="Z" 
d="M42 550v150h486v-90l-282 -460h298v-150h-517v90l285 460h-270z" />
    <glyph glyph-name="bracketleft" unicode="[" horiz-adv-x="364" 
d="M81 -50v800h254v-134h-108v-532h108v-134h-254z" />
    <glyph glyph-name="backslash" unicode="\" horiz-adv-x="585" 
d="M-15 750h156l436 -800h-156z" />
    <glyph glyph-name="bracketright" unicode="]" horiz-adv-x="364" 
d="M283 750v-800h-254v134h108v532h-108v134h254z" />
    <glyph glyph-name="asciicircum" unicode="^" horiz-adv-x="622" 
d="M243 700h136l197 -297h-158l-107 159l-107 -159h-158z" />
    <glyph glyph-name="underscore" unicode="_" horiz-adv-x="521" 
d="M23 -126v126h475v-126h-475z" />
    <glyph glyph-name="a" unicode="a" horiz-adv-x="523" 
d="M179 338l-126 30q15 63 68 103.5t132 40.5q222 0 222 -211v-301h-126l-11 54q-50 -62 -143 -62q-68 0 -114 40.5t-46 112.5q0 77 54.5 121t157.5 44h80v17q0 65 -74 65q-57 0 -74 -54zM188 155q0 -40 53 -40q39 0 62.5 22.5t23.5 56.5v6h-79q-28 0 -44 -12.5t-16 -32.5z
" />
    <glyph glyph-name="b" unicode="b" horiz-adv-x="617" 
d="M578 252q0 -120 -61 -190t-164 -70q-77 0 -117 51v-43h-164v708h164v-244q46 48 120 48q101 0 161.5 -70t60.5 -190zM418 252q0 60 -26 90t-69 30t-69 -30t-26 -90t26 -90t69 -30t69 30t26 90z" />
    <glyph glyph-name="c" unicode="c" horiz-adv-x="573" 
d="M402 198l141 -59q-65 -147 -243 -147q-120 0 -190.5 74.5t-70.5 185.5t70.5 185.5t190.5 74.5q184 0 242 -148l-145 -60q-25 68 -92 68q-47 0 -71.5 -33t-24.5 -87t24.5 -87t73.5 -33q60 0 95 66z" />
    <glyph glyph-name="d" unicode="d" horiz-adv-x="617" 
d="M39 252q0 120 60.5 190t161.5 70q79 0 120 -48v244h164v-708h-164v43q-42 -51 -117 -51q-103 0 -164 70t-61 190zM199 252q0 -60 26 -90t69 -30t69 30t26 90t-26 90t-69 30t-69 -30t-26 -90z" />
    <glyph glyph-name="e" unicode="e" horiz-adv-x="573" 
d="M540 202h-340q22 -77 100 -77q66 0 102 60l130 -46q-67 -147 -239 -147q-65 0 -116 23.5t-80 62t-43.5 83t-14.5 91.5t14.5 91.5t43.5 83t80 62t116 23.5q55 0 98.5 -16t70.5 -41.5t45.5 -59t25.5 -66.5t7 -67v-60zM293 393q-69 0 -91 -77h183q-4 34 -28 55.5t-64 21.5z
" />
    <glyph glyph-name="f" unicode="f" horiz-adv-x="387" 
d="M29 378v126h54v9q0 95 52 145t142 50q62 0 106 -24l-35 -121q-21 17 -49 17q-25 0 -38.5 -15t-13.5 -41v-20h102v-126h-102v-378h-164v378h-54z" />
    <glyph glyph-name="g" unicode="g" horiz-adv-x="510" 
d="M261 512q47 0 89 -17l101 53l55 -93l-70 -36q18 -36 18 -77q0 -77 -55.5 -122.5t-137.5 -45.5q-35 0 -66 9q-18 -13 -18 -33q0 -30 43 -30h94q89 0 136.5 -40t47.5 -113q0 -90 -68 -134.5t-168 -44.5q-108 0 -172 43t-64 123q0 56 41 99q-25 30 -25 79q0 26 17 56.5
t48 47.5q-38 43 -38 106q0 77 55 123.5t137 46.5zM215 -4q-24 0 -47 4q-6 -18 -6 -32q0 -28 27 -44t73 -16q40 0 65 12.5t25 36.5q0 39 -67 39h-70zM211 342q0 -22 14 -36t36 -14t36 14t14 36q0 23 -14 37.5t-36 14.5t-36 -14.5t-14 -37.5z" />
    <glyph glyph-name="h" unicode="h" horiz-adv-x="620" 
d="M72 708h164v-262q20 30 60 48t86 18q85 0 129 -44.5t44 -130.5v-337h-164v292q0 35 -18.5 54.5t-46.5 19.5q-90 0 -90 -145v-221h-164v708z" />
    <glyph glyph-name="i" unicode="i" horiz-adv-x="286" 
d="M45 661q0 41 28 69.5t70 28.5t70 -28.5t28 -69.5t-28 -69.5t-70 -28.5t-70 28.5t-28 69.5zM61 504h164v-504h-164v504z" />
    <glyph glyph-name="j" unicode="j" horiz-adv-x="297" 
d="M72 504h164v-450q0 -120 -62 -186.5t-169 -79.5l-41 136q56 12 82 36.5t26 82.5v461zM56 661q0 41 28 69.5t70 28.5t70 -28.5t28 -69.5t-28 -69.5t-70 -28.5t-70 28.5t-28 69.5z" />
    <glyph glyph-name="k" unicode="k" horiz-adv-x="572" 
d="M72 708h164v-354l124 150h196l-202 -232l215 -272h-195l-138 184v-184h-164v708z" />
    <glyph glyph-name="l" unicode="l" horiz-adv-x="308" 
d="M72 708h164v-708h-164v708z" />
    <glyph glyph-name="m" unicode="m" horiz-adv-x="879" 
d="M519 0h-152v306q0 70 -53 70q-90 0 -90 -178v-198h-152v504h152v-60q49 68 131 68q102 0 142 -85q50 85 153 85q78 0 121 -42t43 -113v-357h-152v306q0 70 -52 70q-39 0 -65 -42.5t-26 -134.5v-199z" />
    <glyph glyph-name="n" unicode="n" horiz-adv-x="612" 
d="M72 504h164v-58q21 30 59 48t84 18q168 0 168 -166v-346h-164v298q0 32 -15 50t-42 18q-42 0 -66 -37.5t-24 -107.5v-221h-164v504z" />
    <glyph glyph-name="o" unicode="o" horiz-adv-x="610" 
d="M39 252q0 110 70 185t196 75t196 -75t70 -185t-70 -185t-196 -75t-196 75t-70 185zM203 252q0 -56 25.5 -88t76.5 -32t76.5 32t25.5 88t-25.5 88t-76.5 32t-76.5 -32t-25.5 -88z" />
    <glyph glyph-name="p" unicode="p" horiz-adv-x="617" 
d="M578 252q0 -119 -65 -189.5t-167 -70.5q-76 0 -110 38v-234h-164v708h164v-43q46 51 126 51q97 0 156.5 -70t59.5 -190zM418 252q0 60 -26 90t-69 30t-69 -30t-26 -90t26 -90t69 -30t69 30t26 90z" />
    <glyph glyph-name="q" unicode="q" horiz-adv-x="617" 
d="M39 252q0 120 61 190t164 70q76 0 117 -51v43h164v-708h-164v244q-45 -48 -120 -48q-101 0 -161.5 70t-60.5 190zM199 252q0 -60 26 -90t69 -30t69 30t26 90t-26 90t-69 30t-69 -30t-26 -90z" />
    <glyph glyph-name="r" unicode="r" horiz-adv-x="450" 
d="M236 0h-164v504h164v-55q20 29 58 46t82 17q36 0 66 -14l-35 -148q-23 14 -52 14q-49 0 -84 -45.5t-35 -139.5v-179z" />
    <glyph glyph-name="s" unicode="s" horiz-adv-x="441" 
d="M229 512q111 0 166 -84l-89 -82q-33 44 -76 44q-14 0 -24 -8t-10 -20q0 -14 13.5 -25t45.5 -22q36 -12 55.5 -19.5t43 -21t35.5 -28t20 -36.5t8 -50q0 -71 -50.5 -119.5t-134.5 -48.5q-147 0 -213 137l121 65q28 -78 92 -78q44 0 44 34q0 10 -5.5 18.5t-17.5 15t-22.5 11
t-31 12t-32.5 12.5q-112 45 -112 146q0 61 48 104t126 43z" />
    <glyph glyph-name="t" unicode="t" horiz-adv-x="422" 
d="M360 148l35 -132q-50 -24 -105 -24q-89 0 -145 48t-56 138v200h-72v126h72v104l160 100v-204h127v-126h-127v-169q0 -73 57 -73q31 0 54 12z" />
    <glyph glyph-name="u" unicode="u" horiz-adv-x="612" 
d="M540 0h-164v58q-48 -66 -143 -66q-168 0 -168 182v330h164v-294q0 -72 57 -72q42 0 66 37.5t24 107.5v221h164v-504z" />
    <glyph glyph-name="v" unicode="v" horiz-adv-x="504" 
d="M5 504h164l83 -282l83 282h164l-175 -504h-144z" />
    <glyph glyph-name="w" unicode="w" horiz-adv-x="794" 
d="M607 504h164l-161 -504h-140l-73 277l-73 -277h-140l-161 504h164l68 -273l68 273h148l68 -273z" />
    <glyph glyph-name="x" unicode="x" horiz-adv-x="528" 
d="M326 504h175l-148 -235l167 -269h-178l-78 134l-78 -134h-178l167 269l-148 235h175l62 -102z" />
    <glyph glyph-name="y" unicode="y" horiz-adv-x="513" 
d="M95 -204l89 244l-181 464h169l91 -245l90 245h158l-262 -708h-154z" />
    <glyph glyph-name="z" unicode="z" horiz-adv-x="486" 
d="M53 368v136h384v-78l-194 -290h208v-136h-414v78l196 290h-180z" />
    <glyph glyph-name="braceleft" unicode="{" horiz-adv-x="354" 
d="M123 50v166q0 40 -16.5 57t-55.5 17v120q39 0 55.5 17t16.5 57v166q0 45 27.5 72.5t72.5 27.5h111v-134h-24q-24 0 -32.5 -9.5t-8.5 -35.5v-123q0 -48 -18.5 -70.5t-55.5 -27.5q37 -5 55.5 -27.5t18.5 -70.5v-123q0 -26 8.5 -35.5t32.5 -9.5h24v-134h-111
q-45 0 -72.5 27.5t-27.5 72.5z" />
    <glyph glyph-name="bar" unicode="|" horiz-adv-x="324" 
d="M81 750h162v-800h-162v800z" />
    <glyph glyph-name="braceright" unicode="}" horiz-adv-x="354" 
d="M231 216v-166q0 -45 -27.5 -72.5t-72.5 -27.5h-111v134h24q24 0 32.5 9.5t8.5 35.5v123q0 48 18.5 70.5t55.5 27.5q-37 5 -55.5 27.5t-18.5 70.5v123q0 26 -8.5 35.5t-32.5 9.5h-24v134h111q45 0 72.5 -27.5t27.5 -72.5v-166q0 -40 16.5 -57t55.5 -17v-120
q-39 0 -55.5 -17t-16.5 -57z" />
    <glyph glyph-name="asciitilde" unicode="~" horiz-adv-x="672" 
d="M153 232l-86 90q19 50 63.5 83.5t103.5 33.5q45 0 106.5 -29t93.5 -29q45 0 85 55l86 -90q-19 -50 -63.5 -83.5t-103.5 -33.5q-44 0 -106 29t-94 29q-45 0 -85 -55z" />
    <glyph glyph-name="exclamdown" unicode="&#xa1;" horiz-adv-x="371" 
d="M286 -204h-196l32 450h132zM99 415q0 38 25.5 63.5t63.5 25.5t63.5 -25.5t25.5 -63.5t-25.5 -63.5t-63.5 -25.5t-63.5 25.5t-25.5 63.5z" />
    <glyph glyph-name="cent" unicode="&#xa2;" horiz-adv-x="602" 
d="M412 298l141 -59q-53 -119 -173 -141v-148h-138v149q-91 20 -142 89.5t-51 163.5q0 93 51 162.5t142 90.5v145h138v-145q126 -25 172 -141l-145 -60q-25 68 -92 68q-47 0 -71.5 -33t-24.5 -87t24.5 -87t73.5 -33q60 0 95 66z" />
    <glyph glyph-name="sterling" unicode="&#xa3;" horiz-adv-x="579" 
d="M56 304v120h42q-13 42 -13 76q0 90 61 149t161 59q82 0 138.5 -37t80.5 -102l-130 -63q-32 64 -89 64q-31 0 -52.5 -20t-21.5 -56q0 -38 8 -70h164v-120h-134q3 -20 3 -41q0 -78 -67 -136q33 23 78 23q23 0 55.5 -13t50.5 -13q39 0 68 53l103 -67q-37 -63 -79.5 -90.5
t-96.5 -27.5q-37 0 -81.5 15t-73.5 15q-55 0 -121 -30l-76 84q52 46 82 87.5t30 90.5q0 24 -8 50h-82z" />
    <glyph glyph-name="currency" unicode="&#xa4;" horiz-adv-x="568" 
d="M9 149l95 67q-21 44 -21 91t21 91l-95 67l117 117l66 -94q42 21 92 21q48 0 92 -21l66 94l117 -117l-95 -67q21 -43 21 -91q0 -47 -21 -91l95 -67l-117 -117l-66 94q-44 -21 -92 -21q-50 0 -92 21l-66 -94zM219 307q0 -32 17.5 -51.5t47.5 -19.5t47.5 19.5t17.5 51.5
t-17.5 51.5t-47.5 19.5t-47.5 -19.5t-17.5 -51.5z" />
    <glyph glyph-name="yen" unicode="&#xa5;" horiz-adv-x="598" 
d="M8 700h186l105 -242l105 242h186l-150 -288h75v-120h-127v-60h127v-120h-127v-112h-178v112h-127v120h127v60h-127v120h75z" />
    <glyph glyph-name="brokenbar" unicode="&#xa6;" horiz-adv-x="324" 
d="M81 299h162v-349h-162v349zM243 401h-162v349h162v-349z" />
    <glyph glyph-name="section" unicode="&#xa7;" horiz-adv-x="577" 
d="M523 221q0 -89 -63 -141q29 -47 29 -100q0 -88 -57.5 -140t-144.5 -52q-80 0 -138 38.5t-78 112.5l147 45q18 -62 66 -62q19 0 33 12.5t14 39.5q0 38 -32.5 64t-118.5 65q-68 31 -97 71.5t-29 100.5q0 44 16 74t48 65q-30 47 -30 102q0 88 57.5 140t144.5 52
q80 0 138 -38.5t78 -112.5l-147 -45q-18 62 -66 62q-19 0 -33 -12.5t-14 -39.5q0 -38 32.5 -64t118.5 -65q68 -31 97 -71.5t29 -100.5zM242 314q-5 2 -12.5 5.5t-9.5 4.5q-13 -17 -13 -43q0 -21 16.5 -37.5t36.5 -27t73 -34.5l24 -11q13 19 13 44q0 30 -24 47t-104 52z" />
    <glyph glyph-name="guillemotleft" unicode="&#xab;" horiz-adv-x="708" 
d="M340 263v94l323 229v-164l-159 -112l159 -112v-164zM40 263v94l323 229v-164l-159 -112l159 -112v-164z" />
    <glyph glyph-name="paragraph" unicode="&#xb6;" horiz-adv-x="769" 
d="M49 457q0 101 71.5 172t171.5 71h423v-124h-62v-780h-140v780h-81v-780h-140v418q-100 0 -171.5 71t-71.5 172z" />
    <glyph glyph-name="periodcentered" unicode="&#xb7;" horiz-adv-x="330" 
d="M72 375q0 40 26.5 66.5t66.5 26.5t66.5 -26.5t26.5 -66.5t-26.5 -66.5t-66.5 -26.5t-66.5 26.5t-26.5 66.5z" />
    <glyph glyph-name="guillemotright" unicode="&#xbb;" horiz-adv-x="708" 
d="M368 357v-94l-323 -229v164l159 112l-159 112v164zM668 357v-94l-323 -229v164l159 112l-159 112v164z" />
    <glyph glyph-name="questiondown" unicode="&#xbf;" horiz-adv-x="482" 
d="M86 178q20 55 56 80t94 25q63 0 105 -35.5t42 -92.5q0 -52 -28 -87.5t-90 -57.5q-43 -15 -60 -28.5t-17 -32.5q0 -16 13.5 -27.5t35.5 -11.5q25 0 40 16.5t18 41.5l143 -24q-12 -66 -65.5 -111t-134.5 -45q-89 0 -141.5 42t-52.5 110q0 67 37.5 102.5t113.5 61.5
q31 10 43 20.5t12 24.5q0 9 -7 15t-16 6q-24 0 -36 -32zM325 415q0 -38 -25.5 -63.5t-63.5 -25.5t-63.5 25.5t-25.5 63.5t25.5 63.5t63.5 25.5t63.5 -25.5t25.5 -63.5z" />
    <glyph glyph-name="multiply" unicode="&#xd7;" horiz-adv-x="616" 
d="M54 472l99 99l155 -155l155 155l99 -99l-155 -155l155 -155l-99 -99l-155 155l-155 -155l-99 99l155 155z" />
    <glyph glyph-name="germandbls" unicode="&#xdf;" horiz-adv-x="593" 
d="M29 314v136h43v50q0 99 63.5 153.5t161.5 54.5q102 0 155.5 -48.5t53.5 -128.5q0 -47 -24.5 -80.5t-60.5 -49.5q136 -51 136 -193q0 -108 -61 -162t-167 -54q-50 0 -80 8v134q33 -13 60 -13q41 0 66.5 26.5t25.5 69.5t-30.5 70t-84.5 27h-24v136h17q37 0 59 18t22 52
q0 25 -16.5 43.5t-46.5 18.5t-48.5 -21t-18.5 -58v-503h-158v314h-43z" />
    <glyph glyph-name="endash" unicode="&#x2013;" horiz-adv-x="593" 
d="M59 247v140h475v-140h-475z" />
    <glyph glyph-name="emdash" unicode="&#x2014;" horiz-adv-x="779" 
d="M59 247v140h661v-140h-661z" />
    <glyph glyph-name="quoteleft" unicode="&#x2018;" horiz-adv-x="352" 
d="M238 708l75 -252h-116l-152 252h193z" />
    <glyph glyph-name="quoteright" unicode="&#x2019;" horiz-adv-x="352" 
d="M39 456l75 252h193l-152 -252h-116z" />
    <glyph glyph-name="quotesinglbase" unicode="&#x201a;" horiz-adv-x="352" 
d="M39 -14l75 252h193l-152 -252h-116z" />
    <glyph glyph-name="quotedblleft" unicode="&#x201c;" 
d="M238 708l75 -252h-116l-152 252h193zM460 708l75 -252h-116l-152 252h193z" />
    <glyph glyph-name="quotedblright" unicode="&#x201d;" 
d="M261 456l75 252h193l-152 -252h-116zM39 456l75 252h193l-152 -252h-116z" />
    <glyph glyph-name="quotedblbase" unicode="&#x201e;" 
d="M261 -14l75 252h193l-152 -252h-116zM39 -14l75 252h193l-152 -252h-116z" />
    <glyph glyph-name="bullet" unicode="&#x2022;" horiz-adv-x="410" 
d="M71 330q0 56 39.5 95t94.5 39t94.5 -39t39.5 -95t-39.5 -95t-94.5 -39t-94.5 39t-39.5 95z" />
    <glyph glyph-name="ellipsis" unicode="&#x2026;" horiz-adv-x="974" 
d="M716 85q0 40 26.5 66.5t66.5 26.5t66.5 -26.5t26.5 -66.5t-26.5 -66.5t-66.5 -26.5t-66.5 26.5t-26.5 66.5zM394 85q0 40 26.5 66.5t66.5 26.5t66.5 -26.5t26.5 -66.5t-26.5 -66.5t-66.5 -26.5t-66.5 26.5t-26.5 66.5zM72 85q0 40 26.5 66.5t66.5 26.5t66.5 -26.5
t26.5 -66.5t-26.5 -66.5t-66.5 -26.5t-66.5 26.5t-26.5 66.5z" />
    <glyph glyph-name="perthousand" unicode="&#x2030;" horiz-adv-x="1235" 
d="M852 152q0 69 46.5 114.5t121.5 45.5t121.5 -45.5t46.5 -114.5t-46.5 -114.5t-121.5 -45.5t-121.5 45.5t-46.5 114.5zM968 152q0 -24 14.5 -39t37.5 -15t37.5 15t14.5 39t-14.5 39t-37.5 15t-37.5 -15t-14.5 -39zM47 548q0 69 46.5 114.5t121.5 45.5t121.5 -45.5
t46.5 -114.5t-46.5 -114.5t-121.5 -45.5t-121.5 45.5t-46.5 114.5zM163 548q0 -24 14.5 -39t37.5 -15t37.5 15t14.5 39t-14.5 39t-37.5 15t-37.5 -15t-14.5 -39zM453 152q0 69 46.5 114.5t121.5 45.5t121.5 -45.5t46.5 -114.5t-46.5 -114.5t-121.5 -45.5t-121.5 45.5
t-46.5 114.5zM569 152q0 -24 14.5 -39t37.5 -15t37.5 15t14.5 39t-14.5 39t-37.5 15t-37.5 -15t-14.5 -39zM648 745l88 -70l-538 -719l-88 70z" />
    <glyph glyph-name="guilsinglleft" unicode="&#x2039;" horiz-adv-x="408" 
d="M40 263v94l323 229v-164l-159 -112l159 -112v-164z" />
    <glyph glyph-name="guilsinglright" unicode="&#x203a;" horiz-adv-x="408" 
d="M368 357v-94l-323 -229v164l159 112l-159 112v164z" />
    <glyph glyph-name="Euro" unicode="&#x20ac;" horiz-adv-x="663" 
d="M23 368l58 124h45q16 60 46.5 104t69 67.5t78 34t81.5 10.5q161 0 226 -121l-127 -75q-36 60 -99 60q-87 0 -118 -80h200l-58 -124h-162v-36h220l-58 -124h-142q18 -43 47.5 -57.5t70.5 -14.5q69 0 104 66l125 -83q-72 -127 -229 -127q-42 0 -81.5 10.5t-78 34t-69 67.5
t-46.5 104h-103l58 124h28v36h-86z" />
    <glyph glyph-name="minus" unicode="&#x2212;" horiz-adv-x="603" 
d="M54 387h496v-140h-496v140z" />
    <glyph glyph-name="apple" unicode="&#xf8ff;" horiz-adv-x="754" 
d="M673 617v-595q0 -9 -6.5 -15.5t-15.5 -6.5q-3 0 -7 1l-267 77l-267 -77q-4 -1 -7 -1q-9 0 -15.5 6.5t-6.5 15.5v595q0 17 16 22l270 78q6 2 10 2t10 -2l270 -78q16 -5 16 -22zM355 366v303l-230 -67q6 -94 71.5 -161t158.5 -75zM399 669v-303q93 8 158.5 75t71.5 161z
M124 463v-412l231 67v204q-73 6 -134 43.5t-97 97.5zM630 51v412q-37 -60 -97.5 -97.5t-133.5 -43.5v-204z" />
    </font>
</defs>
</svg>
