<?xml version="1.0" standalone="no"?>
<!DOCTYPE svg PUBLIC "-//W3C//DTD SVG 1.1//EN" "http://www.w3.org/Graphics/SVG/1.1/DTD/svg11.dtd" >
<svg xmlns="http://www.w3.org/2000/svg" xmlns:xlink="http://www.w3.org/1999/xlink" version="1.1">
<metadata>
Created by FontForge 20161013 at Tue Jul 14 21:23:48 2015
 By ,,,
Copyright (c) 2010-2012 by The Entente (AS&#38;EH). All rights reserved. Re-release (Version 2.01) July 2015. Trial version for testing, previewing and presentation purposes only. Full licence required for commercial use.
</metadata>
<defs>
<font id="ApercuTrial-BlackItalic" horiz-adv-x="307" >
  <font-face 
    font-family="Apercu Trial Black"
    font-weight="900"
    font-style="italic"
    font-stretch="normal"
    units-per-em="1000"
    panose-1="2 0 8 3 4 0 0 2 0 4"
    ascent="800"
    descent="-200"
    x-height="504"
    cap-height="700"
    bbox="-108 -212 1215 790"
    underline-thickness="50"
    underline-position="-200"
    slope="-11"
    unicode-range="U+000D-FB02"
  />
<missing-glyph horiz-adv-x="623" 
d="M72 0v700h479v-700h-479zM419 584h-215v-468h215v468z" />
    <glyph glyph-name="fi" unicode="fi" horiz-adv-x="591" 
d="M35 378l25 126h53l1 9q18 95 92 145t188 50q95 0 170 -35l-70 -131q-48 32 -111 32q-43 0 -71 -18.5t-33 -51.5h283l-98 -504h-166l73 378h-117l-73 -378h-166l73 378h-53z" />
    <glyph glyph-name="fl" unicode="fl" horiz-adv-x="642" 
d="M35 378l25 126h53l1 8q11 91 70.5 143.5t157.5 52.5h310l-137 -708h-166l112 580h-113q-30 0 -44.5 -14t-20.5 -42l-4 -20h97l-25 -126h-97l-73 -378h-166l73 378h-53z" />
    <glyph glyph-name=".notdef" horiz-adv-x="623" 
d="M72 0v700h479v-700h-479zM419 584h-215v-468h215v468z" />
    <glyph glyph-name=".null" horiz-adv-x="0" 
 />
    <glyph glyph-name="nonmarkingreturn" horiz-adv-x="333" 
 />
    <glyph glyph-name="NULL" horiz-adv-x="0" 
 />
    <glyph glyph-name="NULL" horiz-adv-x="0" 
 />
    <glyph glyph-name="CR" unicode="&#xd;" horiz-adv-x="221" 
 />
    <glyph glyph-name="space" unicode=" " horiz-adv-x="226" 
 />
    <glyph glyph-name="exclam" unicode="!" horiz-adv-x="359" 
d="M149 700h196l-119 -450h-132zM38 81q0 38 25.5 63.5t63.5 25.5t63.5 -25.5t25.5 -63.5t-25.5 -63.5t-63.5 -25.5t-63.5 25.5t-25.5 63.5z" />
    <glyph glyph-name="quotedbl" unicode="&#x22;" horiz-adv-x="479" 
d="M300 449l16 259h169l-86 -259h-99zM98 449l16 259h169l-86 -259h-99z" />
    <glyph glyph-name="numbersign" unicode="#" horiz-adv-x="701" 
d="M31 301h135l33 98h-115l14 118h139l59 183h120l-59 -183h92l60 183h120l-60 -183h111l-14 -118h-135l-33 -98h115l-14 -118h-139l-59 -183h-120l59 183h-92l-60 -183h-120l60 183h-111zM319 399l-33 -98h92l33 98h-92z" />
    <glyph glyph-name="dollar" unicode="$" horiz-adv-x="571" 
d="M537 577l-142 -81q-25 64 -71 64q-23 0 -37.5 -13.5t-14.5 -34.5q0 -30 26 -53t80 -49q128 -62 128 -183q0 -93 -58.5 -156t-160.5 -76l-16 -85h-138l18 95q-65 22 -102.5 73.5t-46.5 114.5l147 82q3 -56 29.5 -93.5t73.5 -37.5q31 0 51.5 18t20.5 50q0 34 -21.5 55
t-86.5 54q-117 59 -117 178q0 79 52.5 135t135.5 70l17 86h138l-19 -97q77 -29 114 -116z" />
    <glyph glyph-name="percent" unicode="%" horiz-adv-x="887" 
d="M59 522q0 76 54 131t142 55q66 0 106 -37.5t40 -100.5q0 -74 -54.5 -128t-138.5 -54q-68 0 -108.5 37t-40.5 97zM240 602q-26 0 -44.5 -19t-18.5 -47q0 -19 12.5 -30.5t32.5 -11.5q25 0 43 18.5t18 44.5q0 21 -11.5 33t-31.5 12zM466 126q0 76 54 131t142 55
q66 0 106 -37.5t40 -100.5q0 -74 -54.5 -128t-138.5 -54q-68 0 -108.5 37t-40.5 97zM647 206q-26 0 -44.5 -19t-18.5 -47q0 -19 12.5 -30.5t32.5 -11.5q25 0 43 18.5t18 44.5q0 21 -11.5 33t-31.5 12zM743 745l75 -70l-678 -719l-74 70z" />
    <glyph glyph-name="ampersand" unicode="&#x26;" horiz-adv-x="665" 
d="M590 283q-29 -77 -71 -135l85 -148h-173l-22 39q-75 -47 -159 -47q-104 0 -167.5 55t-63.5 140q0 160 178 240q-24 56 -24 101q0 75 54.5 127.5t142.5 52.5q74 0 116 -38t42 -105q0 -62 -37 -106t-105 -78l61 -108q38 63 64 128zM265 128q41 0 81 27l-92 165
q-79 -38 -79 -107q0 -40 24.5 -62.5t65.5 -22.5zM315 534q0 -26 13 -50q58 27 58 68q0 32 -30 32q-18 0 -29.5 -14t-11.5 -36z" />
    <glyph glyph-name="quotesingle" unicode="'" horiz-adv-x="277" 
d="M98 449l16 259h169l-86 -259h-99z" />
    <glyph glyph-name="parenleft" unicode="(" horiz-adv-x="305" 
d="M238 750h136q-91 -115 -141.5 -254.5t-50.5 -281.5q0 -149 37 -264h-136q-45 127 -45 260q0 162 53 299.5t147 240.5z" />
    <glyph glyph-name="parenright" unicode=")" horiz-adv-x="305" 
d="M67 -50h-136q91 115 141.5 254.5t50.5 281.5q0 149 -37 264h136q45 -127 45 -260q0 -162 -53 -299.5t-147 -240.5z" />
    <glyph glyph-name="asterisk" unicode="*" horiz-adv-x="466" 
d="M112 631l108 -37l22 114h112l-22 -114l109 35l28 -103l-121 -37l49 -91l-102 -68l-49 92l-86 -95l-79 71l83 90l-98 35z" />
    <glyph glyph-name="plus" unicode="+" horiz-adv-x="601" 
d="M271 565h142l-35 -178h177l-27 -140h-177l-35 -178h-142l35 178h-177l27 140h177z" />
    <glyph glyph-name="comma" unicode="," horiz-adv-x="368" 
d="M-50 -156l130 302h193l-218 -302h-105z" />
    <glyph glyph-name="hyphen" unicode="-" horiz-adv-x="498" 
d="M32 247l27 140h393l-27 -140h-393z" />
    <glyph glyph-name="period" unicode="." horiz-adv-x="322" 
d="M18 85q0 40 26.5 66.5t66.5 26.5t66.5 -26.5t26.5 -66.5t-26.5 -66.5t-66.5 -26.5t-66.5 26.5t-26.5 66.5z" />
    <glyph glyph-name="slash" unicode="/" horiz-adv-x="564" 
d="M487 750h167l-584 -800h-166z" />
    <glyph glyph-name="zero" unicode="0" horiz-adv-x="615" 
d="M368 708q107 0 164.5 -67.5t57.5 -202.5q0 -86 -20.5 -164t-60.5 -142t-107 -102t-153 -38q-103 0 -163.5 71t-60.5 192q0 89 21 168.5t61.5 144t107.5 102.5t153 38zM349 564q-74 0 -120 -92.5t-46 -195.5q0 -140 90 -140q66 0 112.5 91.5t46.5 204.5q0 60 -21.5 96
t-61.5 36z" />
    <glyph glyph-name="one" unicode="1" horiz-adv-x="416" 
d="M306 700h90l-137 -700h-165l95 482l-142 -76l35 178z" />
    <glyph glyph-name="two" unicode="2" horiz-adv-x="565" 
d="M-22 0l13 74l309 313q40 40 55 64.5t15 54.5q0 29 -15.5 45.5t-45.5 16.5q-31 0 -52.5 -24t-26.5 -62l-154 32q48 194 250 194q93 0 148 -49.5t55 -120.5t-24.5 -118.5t-83.5 -109.5l-163 -170h215l-27 -140h-468z" />
    <glyph glyph-name="three" unicode="3" horiz-adv-x="588" 
d="M8 201l156 22q2 -39 25 -65t63 -26q43 0 72 28.5t29 77.5q0 38 -23 62t-58 24q-32 0 -58 -14l-51 93l143 159h-195l26 138h417l-13 -66l-187 -199q158 -20 158 -186q0 -114 -73 -185.5t-192 -71.5q-101 0 -170 58.5t-69 150.5z" />
    <glyph glyph-name="four" unicode="4" horiz-adv-x="613" 
d="M269 0l23 114h-301l16 86l386 500h165l-88 -448h81l-26 -138h-81l-23 -114h-152zM207 252h111l42 210z" />
    <glyph glyph-name="five" unicode="5" horiz-adv-x="573" 
d="M14 193l152 21q0 -36 21.5 -56t51.5 -20q46 0 73 30.5t27 79.5q0 40 -20 60.5t-54 20.5q-63 0 -103 -55l-115 26l114 400h386l-26 -138h-256l-39 -118q42 20 92 20q88 0 137 -52.5t49 -130.5q0 -134 -75.5 -211.5t-200.5 -77.5q-96 0 -155.5 51t-59.5 131q0 13 1 19z" />
    <glyph glyph-name="six" unicode="6" horiz-adv-x="582" 
d="M320 448q79 0 135.5 -51t56.5 -137q0 -121 -78 -194.5t-197 -73.5q-101 0 -160 53.5t-59 147.5q0 87 72 182l254 333h178zM280 310q-44 0 -73 -31t-29 -75q0 -35 21.5 -54.5t57.5 -19.5q44 0 71.5 31.5t27.5 74.5q0 34 -20.5 54t-55.5 20z" />
    <glyph glyph-name="seven" unicode="7" horiz-adv-x="534" 
d="M576 700l-14 -72l-375 -628h-173l337 562h-256l27 138h454z" />
    <glyph glyph-name="eight" unicode="8" horiz-adv-x="564" 
d="M342 708q82 0 134 -46t52 -118q0 -112 -97 -171q67 -47 67 -150q0 -106 -73.5 -168.5t-185.5 -62.5q-104 0 -164.5 50.5t-60.5 133.5q0 136 131 207q-42 42 -42 111q0 86 67 150t172 64zM266 300q-42 0 -70.5 -29.5t-28.5 -71.5q0 -34 24.5 -53.5t55.5 -19.5
q44 0 72 27.5t28 67.5q0 37 -21.5 58t-59.5 21zM326 584q-38 0 -61 -24.5t-23 -60.5q0 -28 17 -45.5t43 -17.5q36 0 61 24t25 61q0 29 -17 46t-45 17z" />
    <glyph glyph-name="nine" unicode="9" horiz-adv-x="570" 
d="M51 -8l202 260q-80 0 -136 53t-56 145q0 114 78.5 186t196.5 72q101 0 160 -53.5t59 -147.5q0 -87 -72 -182l-254 -333h-178zM293 390q44 0 73 31t29 75q0 35 -21.5 54.5t-57.5 19.5q-44 0 -71.5 -31.5t-27.5 -74.5q0 -34 20.5 -54t55.5 -20z" />
    <glyph glyph-name="colon" unicode=":" horiz-adv-x="322" 
d="M18 85q0 40 26.5 66.5t66.5 26.5t66.5 -26.5t26.5 -66.5t-26.5 -66.5t-66.5 -26.5t-66.5 26.5t-26.5 66.5zM88 419q0 40 26.5 66.5t66.5 26.5t66.5 -26.5t26.5 -66.5t-26.5 -66.5t-66.5 -26.5t-66.5 26.5t-26.5 66.5z" />
    <glyph glyph-name="semicolon" unicode=";" horiz-adv-x="368" 
d="M118 419q0 40 26.5 66.5t66.5 26.5t66.5 -26.5t26.5 -66.5t-26.5 -66.5t-66.5 -26.5t-66.5 26.5t-26.5 66.5zM-50 -156l130 302h193l-218 -302h-105z" />
    <glyph glyph-name="less" unicode="&#x3c;" horiz-adv-x="507" 
d="M28 244v132l412 214v-168l-225 -112l225 -112v-168z" />
    <glyph glyph-name="equal" unicode="=" horiz-adv-x="608" 
d="M59 282h465l-27 -140h-465zM97 478h465l-27 -140h-465z" />
    <glyph glyph-name="greater" unicode="&#x3e;" horiz-adv-x="507" 
d="M479 376v-132l-412 -214v168l225 112l-225 112v168z" />
    <glyph glyph-name="question" unicode="?" horiz-adv-x="459" 
d="M379 325q-26 -60 -63 -86t-100 -26q-52 0 -95.5 31.5t-43.5 85.5q0 56 32.5 92t115.5 64q40 14 55 20t27 17t12 27t-13 26t-34 10q-26 0 -46 -19t-25 -46l-136 31q51 156 230 156q72 0 122 -38.5t50 -97.5q0 -76 -44 -113t-146 -67q-23 -7 -33.5 -11t-21.5 -13t-11 -21
q0 -21 23 -21t40 32zM84 81q0 38 25.5 63.5t63.5 25.5t63.5 -25.5t25.5 -63.5t-25.5 -63.5t-63.5 -25.5t-63.5 25.5t-25.5 63.5z" />
    <glyph glyph-name="at" unicode="@" horiz-adv-x="912" 
d="M232 275q0 105 67.5 173t176.5 68q62 0 99 -34l14 27h95l-47 -219q-3 -16 -3 -27q0 -33 28 -33q33 0 54 38.5t21 114.5q0 106 -63.5 162.5t-172.5 56.5q-137 0 -227.5 -86t-90.5 -232q0 -69 23.5 -121t61.5 -80.5t80.5 -42.5t86.5 -14q100 0 240 52l28 -115
q-74 -34 -138 -45.5t-150 -11.5q-163 0 -267.5 100t-104.5 266q0 196 128.5 321t334.5 125q174 0 268.5 -90.5t94.5 -233.5q0 -137 -56.5 -211.5t-162.5 -74.5q-35 0 -68 17t-43 40q-57 -57 -140 -57q-79 0 -123 45t-44 122zM465 394q-42 0 -68 -30t-26 -72
q0 -31 16.5 -46.5t43.5 -15.5q36 0 62 29t26 71q0 64 -54 64z" />
    <glyph glyph-name="A" unicode="A" horiz-adv-x="610" 
d="M380 0l-16 149h-186l-74 -149h-186l373 700h170l100 -700h-181zM333 469l-80 -168h96z" />
    <glyph glyph-name="B" unicode="B" horiz-adv-x="660" 
d="M151 700h257q96 0 152 -39t56 -121q0 -106 -103 -158q79 -56 79 -154q0 -99 -75 -163.5t-200 -64.5h-303zM386 562h-88l-24 -120h91q38 0 62 17t24 51q0 52 -65 52zM345 294h-99l-28 -142h102q107 0 107 80q0 32 -19.5 47t-62.5 15z" />
    <glyph glyph-name="C" unicode="C" horiz-adv-x="721" 
d="M710 485l-162 -41q-9 47 -42.5 79.5t-89.5 32.5q-92 0 -149 -77.5t-57 -175.5q0 -78 38 -118.5t104 -40.5q44 0 81 31.5t62 83.5l158 -53q-55 -120 -133.5 -167t-199.5 -47q-125 0 -207.5 81.5t-82.5 211.5q0 113 47.5 208.5t140 155t211.5 59.5q123 0 195.5 -61.5
t85.5 -161.5z" />
    <glyph glyph-name="D" unicode="D" horiz-adv-x="706" 
d="M252 0h-238l137 700h213q135 0 223.5 -80t88.5 -206q0 -190 -115.5 -302t-308.5 -112zM220 152h40q110 0 172.5 69t62.5 176q0 151 -158 151h-40z" />
    <glyph glyph-name="E" unicode="E" horiz-adv-x="618" 
d="M151 700h477l-30 -152h-297l-19 -99h233l-30 -152h-233l-28 -145h307l-30 -152h-487z" />
    <glyph glyph-name="F" unicode="F" horiz-adv-x="604" 
d="M151 700h482l-30 -152h-302l-22 -112h241l-29 -152h-241l-56 -284h-180z" />
    <glyph glyph-name="G" unicode="G" horiz-adv-x="744" 
d="M471 0v54q-62 -62 -175 -62q-111 0 -188.5 79t-77.5 214q0 82 27 157.5t77.5 135t129 95t174.5 35.5q116 0 184 -60t86 -167l-165 -41q-12 54 -45.5 85t-85.5 31q-98 0 -155 -76t-57 -171q0 -79 39 -122t105 -43q94 0 142 89h-115l25 130h282l-71 -363h-136z" />
    <glyph glyph-name="H" unicode="H" horiz-adv-x="755" 
d="M14 0l137 700h180l-48 -244h230l48 244h180l-137 -700h-180l57 292h-230l-57 -292h-180z" />
    <glyph glyph-name="I" unicode="I" horiz-adv-x="345" 
d="M331 700l-137 -700h-180l137 700h180z" />
    <glyph glyph-name="J" unicode="J" horiz-adv-x="570" 
d="M-12 198l165 31v-10q0 -35 17 -55t44 -20q42 0 63 27t32 81l87 448h170l-88 -454q-26 -135 -88.5 -194.5t-179.5 -59.5q-107 0 -164.5 59.5t-57.5 146.5z" />
    <glyph glyph-name="K" unicode="K" horiz-adv-x="700" 
d="M331 700l-46 -235l235 235h228l-335 -318l227 -382h-216l-171 303l-59 -303h-180l137 700h180z" />
    <glyph glyph-name="L" unicode="L" horiz-adv-x="575" 
d="M151 700h180l-107 -548h287l-30 -152h-467z" />
    <glyph glyph-name="M" unicode="M" horiz-adv-x="829" 
d="M14 0l137 700h188l67 -384l217 384h192l-137 -700h-162l70 360l-163 -296h-129l-48 296l-70 -360h-162z" />
    <glyph glyph-name="N" unicode="N" horiz-adv-x="731" 
d="M555 700h162l-137 -700h-173l-149 418l-82 -418h-162l137 700h173l149 -418z" />
    <glyph glyph-name="O" unicode="O" horiz-adv-x="766" 
d="M429 708q137 0 222 -79.5t85 -223.5q0 -178 -109.5 -295.5t-286.5 -117.5q-132 0 -221 80.5t-89 213.5q0 114 47 209t139.5 154t212.5 59zM422 556q-96 0 -154 -78t-58 -174q0 -77 40.5 -118.5t101.5 -41.5q60 0 107.5 39t71.5 96t24 119q0 76 -37 117t-96 41z" />
    <glyph glyph-name="P" unicode="P" horiz-adv-x="636" 
d="M354 266h-108l-52 -266h-180l137 700h259q105 0 164.5 -50.5t59.5 -142.5q0 -119 -79 -180t-201 -61zM371 412q41 0 65.5 22.5t24.5 60.5q0 59 -63 59h-96l-27 -142h96z" />
    <glyph glyph-name="Q" unicode="Q" horiz-adv-x="766" 
d="M429 708q137 0 222 -79t85 -220q0 -161 -88 -274l39 -48l-124 -103l-40 49q-80 -41 -183 -41q-132 0 -221 80.5t-89 213.5q0 114 47 209t139.5 154t212.5 59zM422 556q-96 0 -154 -78t-58 -174q0 -77 40.5 -118.5t101.5 -41.5q31 0 68 16l-59 74l123 103l46 -58
q25 59 25 119q0 76 -37 117t-96 41z" />
    <glyph glyph-name="R" unicode="R" horiz-adv-x="637" 
d="M401 0l-123 288h-34l-57 -288h-173l137 700h258q103 0 155.5 -48.5t52.5 -130.5q0 -80 -45 -135t-117 -79l132 -307h-186zM357 436q43 0 69 20t26 55q0 55 -70 55h-84l-25 -130h84z" />
    <glyph glyph-name="S" unicode="S" horiz-adv-x="571" 
d="M537 577l-142 -81q-25 64 -71 64q-23 0 -37.5 -13.5t-14.5 -34.5q0 -30 26 -53t80 -49q128 -62 128 -183q0 -103 -72 -169t-194 -66q-106 0 -166 59t-72 142l147 82q3 -56 29.5 -93.5t73.5 -37.5q31 0 51.5 18t20.5 50q0 34 -21.5 55t-86.5 54q-117 59 -117 178
q0 92 67.5 150.5t169.5 58.5q147 0 201 -131z" />
    <glyph glyph-name="T" unicode="T" horiz-adv-x="562" 
d="M43 548l30 152h558l-30 -152h-189l-107 -548h-180l107 548h-189z" />
    <glyph glyph-name="U" unicode="U" horiz-adv-x="692" 
d="M688 700l-84 -434q-26 -137 -109 -205.5t-211 -68.5q-97 0 -167.5 56t-70.5 159q0 25 6 59l84 434h165l-82 -426q-4 -20 -4 -34q0 -44 25 -69t71 -25q48 0 83 32t47 96l82 426h165z" />
    <glyph glyph-name="V" unicode="V" horiz-adv-x="598" 
d="M308 0h-168l-95 700h176l51 -452l227 452h182z" />
    <glyph glyph-name="W" unicode="W" horiz-adv-x="916" 
d="M800 700h176l-316 -700h-172l-32 348l-170 -348h-173l-48 700h173l17 -439l173 365h148l40 -365z" />
    <glyph glyph-name="X" unicode="X" horiz-adv-x="596" 
d="M462 700h189l-250 -325l140 -375h-185l-79 210l-158 -210h-192l289 379l-126 321h189l57 -169z" />
    <glyph glyph-name="Y" unicode="Y" horiz-adv-x="543" 
d="M44 700h180l61 -232l153 232h192l-282 -402l-58 -298h-180l58 298z" />
    <glyph glyph-name="Z" unicode="Z" horiz-adv-x="583" 
d="M85 550l30 150h486l-18 -90l-367 -460h294l-30 -150h-516l18 90l369 460h-266z" />
    <glyph glyph-name="bracketleft" unicode="[" horiz-adv-x="360" 
d="M5 -50l155 800h255l-26 -134h-107l-103 -532h107l-26 -134h-255z" />
    <glyph glyph-name="backslash" unicode="\" horiz-adv-x="504" 
d="M39 750h158l277 -800h-158z" />
    <glyph glyph-name="bracketright" unicode="]" horiz-adv-x="359" 
d="M354 750l-155 -800h-254l26 134h106l103 532h-107l26 134h255z" />
    <glyph glyph-name="asciicircum" unicode="^" horiz-adv-x="620" 
d="M247 700h136l197 -297h-158l-107 158l-107 -158h-158z" />
    <glyph glyph-name="underscore" unicode="_" horiz-adv-x="489" 
d="M-73 -126l25 126h475l-25 -126h-475z" />
    <glyph glyph-name="a" unicode="a" horiz-adv-x="630" 
d="M428 504h166l-98 -504h-166l9 43q-43 -51 -122 -51q-91 0 -142 60.5t-51 159.5q0 74 29.5 140.5t95 113t153.5 46.5q77 0 118 -48zM313 372q-57 0 -90 -41.5t-33 -103.5q0 -45 25 -70t63 -25q50 0 82 42.5t32 101.5q0 96 -79 96z" />
    <glyph glyph-name="b" unicode="b" horiz-adv-x="617" 
d="M579 303q0 -134 -74.5 -222.5t-200.5 -88.5q-76 0 -115 51l-9 -43h-166l138 708h166l-46 -236q14 18 46.5 29t71.5 11q86 0 137.5 -59.5t51.5 -149.5zM297 132q50 0 83 41.5t33 96.5q0 50 -22 76t-62 26q-48 0 -80.5 -42t-32.5 -102q0 -44 24 -70t57 -26z" />
    <glyph glyph-name="c" unicode="c" horiz-adv-x="572" 
d="M378 199l134 -60q-49 -76 -111 -111.5t-149 -35.5q-105 0 -166.5 62.5t-61.5 152.5q0 127 86.5 216t226.5 89q168 0 217 -148l-154 -59q-11 67 -81 67q-61 0 -95 -45t-34 -102q0 -43 21.5 -68t62.5 -25q64 0 104 67z" />
    <glyph glyph-name="d" unicode="d" horiz-adv-x="626" 
d="M24 202q0 79 29 147.5t93.5 115.5t153.5 47q74 0 115 -48l47 244h166l-138 -708h-166l9 43q-43 -51 -122 -51q-82 0 -134.5 60t-52.5 150zM311 372q-55 0 -88 -46.5t-33 -101.5q0 -92 86 -92q46 0 78 43.5t32 106.5q0 90 -75 90z" />
    <glyph glyph-name="e" unicode="e" horiz-adv-x="586" 
d="M523 202h-343q7 -37 31 -57t57 -20q66 0 113 60l120 -61q-45 -68 -103 -100t-141 -32q-107 0 -170 65t-63 159q0 117 81.5 206.5t222.5 89.5q109 0 160 -58t51 -141q0 -25 -6 -56zM313 393q-77 0 -116 -77h193q0 29 -19.5 53t-57.5 24z" />
    <glyph glyph-name="f" unicode="f" horiz-adv-x="372" 
d="M35 378l25 126h53l2 10q20 100 74 147t149 47q68 0 111 -24l-56 -122q-18 18 -47 18q-53 0 -63 -56l-4 -20h101l-25 -126h-101l-73 -378h-166l73 378h-53z" />
    <glyph glyph-name="g" unicode="g" horiz-adv-x="527" 
d="M258 174q-43 0 -76 12q-32 -15 -32 -39q0 -27 38 -27h94q70 0 114 -34t44 -99q0 -98 -67 -148.5t-194 -50.5q-96 0 -157.5 41t-61.5 107q0 72 64 123q-14 25 -14 56q0 81 92 130q-25 34 -25 77q0 78 60 134t153 56q57 0 97 -20l112 56l44 -92l-84 -39q10 -26 10 -58
q0 -94 -58 -139.5t-153 -45.5zM159 -4q-23 0 -48 5q-11 -14 -11 -34q0 -59 98 -59q39 0 65 13t26 40q0 35 -60 35h-70zM279 394q-25 0 -41.5 -18t-16.5 -44q0 -18 13 -29t31 -11q26 0 42 16.5t16 42.5q0 19 -11.5 31t-32.5 12z" />
    <glyph glyph-name="h" unicode="h" horiz-adv-x="628" 
d="M151 708h166l-52 -262q57 66 159 66q69 0 106.5 -36.5t37.5 -98.5q0 -17 -4 -40l-65 -337h-166l55 286q3 16 3 25q0 26 -14 40.5t-40 14.5q-87 0 -114 -145l-43 -221h-166z" />
    <glyph glyph-name="i" unicode="i" 
d="M111 504h166l-97 -504h-166zM126 661q0 41 28 69.5t70 28.5t70 -28.5t28 -69.5t-28 -69.5t-70 -28.5t-70 28.5t-28 69.5z" />
    <glyph glyph-name="j" unicode="j" 
d="M111 504h166l-87 -450q-48 -248 -284 -266l-14 136q55 11 87 36.5t43 82.5zM126 661q0 41 28 69.5t70 28.5t70 -28.5t28 -69.5t-28 -69.5t-70 -28.5t-70 28.5t-28 69.5z" />
    <glyph glyph-name="k" unicode="k" horiz-adv-x="567" 
d="M151 708h166l-66 -346l137 142h204l-240 -235l160 -269h-188l-108 190l-36 -190h-166z" />
    <glyph glyph-name="l" unicode="l" 
d="M151 708h166l-137 -708h-166z" />
    <glyph glyph-name="m" unicode="m" horiz-adv-x="885" 
d="M461 0h-152l59 306q2 16 2 22q0 48 -45 48q-87 0 -117 -158l-42 -218h-152l98 504h152l-12 -60q54 68 143 68q96 0 126 -85q25 37 68.5 61t97.5 24q69 0 103.5 -35t34.5 -95q0 -22 -4 -43l-65 -339h-152l59 306q3 14 3 26q0 44 -44 44q-88 0 -119 -157z" />
    <glyph glyph-name="n" unicode="n" horiz-adv-x="618" 
d="M112 504h166l-12 -58q52 66 147 66q68 0 106.5 -39t38.5 -106q0 -24 -4 -43l-63 -324h-166l58 298q2 10 2 18q0 50 -49 50q-39 0 -69.5 -37.5t-43.5 -107.5l-43 -221h-166z" />
    <glyph glyph-name="o" unicode="o" horiz-adv-x="602" 
d="M24 213q0 124 80 211.5t215 87.5q110 0 177.5 -61.5t67.5 -162.5q0 -127 -83 -211.5t-217 -84.5q-106 0 -173 62t-67 159zM310 372q-53 0 -86.5 -43.5t-33.5 -99.5q0 -47 25.5 -72t65.5 -25q52 0 84.5 40t32.5 101q0 45 -24.5 72t-63.5 27z" />
    <glyph glyph-name="p" unicode="p" horiz-adv-x="616" 
d="M578 302q0 -129 -76 -219.5t-203 -90.5q-67 0 -114 38l-45 -234h-166l138 708h166l-9 -43q56 51 135 51q80 0 127 -57t47 -153zM302 132q49 0 79.5 45.5t30.5 104.5q0 41 -20 65.5t-54 24.5q-54 0 -87.5 -46.5t-33.5 -103.5q0 -44 23 -67t62 -23z" />
    <glyph glyph-name="q" unicode="q" horiz-adv-x="625" 
d="M24 209q0 134 77 218.5t197 84.5q81 0 116 -51l9 43h166l-138 -708h-166l47 244q-54 -48 -121 -48q-88 0 -137.5 59t-49.5 158zM311 372q-52 0 -86.5 -43t-34.5 -105q0 -46 23 -69t58 -23q49 0 82 42.5t33 108.5q0 89 -75 89z" />
    <glyph glyph-name="r" unicode="r" horiz-adv-x="474" 
d="M180 0h-166l98 504h166l-11 -55q55 63 151 63q36 0 64 -14l-65 -149q-22 15 -49 15q-118 0 -153 -185z" />
    <glyph glyph-name="s" unicode="s" horiz-adv-x="453" 
d="M253 512q57 0 101.5 -23t66.5 -61l-105 -82q-29 44 -70 44q-17 0 -27.5 -8.5t-10.5 -22.5q0 -26 51 -44q66 -24 100.5 -58t34.5 -89q0 -88 -59 -132t-139 -44q-170 0 -210 147l134 55q6 -35 28 -56.5t49 -21.5q25 0 38.5 10t13.5 26t-12 25.5t-41.5 21.5t-43.5 20
q-87 48 -87 135q0 67 48.5 112.5t139.5 45.5z" />
    <glyph glyph-name="t" unicode="t" horiz-adv-x="413" 
d="M323 148l10 -132q-44 -24 -110 -24q-75 0 -120.5 43.5t-45.5 116.5q0 21 4 44l35 182h-71l24 126h71l21 104l181 100l-40 -204h126l-24 -126h-125l-33 -169q-3 -17 -3 -29q0 -20 12.5 -32t35.5 -12q27 0 52 12z" />
    <glyph glyph-name="u" unicode="u" horiz-adv-x="625" 
d="M491 0h-166l12 58q-53 -66 -145 -66q-67 0 -107.5 39.5t-40.5 105.5q0 24 4 43l63 324h166l-58 -298q-2 -10 -2 -18q0 -23 13.5 -36.5t35.5 -13.5q87 0 114 145l43 221h166z" />
    <glyph glyph-name="v" unicode="v" horiz-adv-x="497" 
d="M29 504h162l28 -279l136 279h168l-272 -504h-144z" />
    <glyph glyph-name="w" unicode="w" horiz-adv-x="751" 
d="M622 504h167l-258 -504h-137l-20 277l-126 -277h-141l-66 504h163l16 -273l121 273h148l14 -273z" />
    <glyph glyph-name="x" unicode="x" horiz-adv-x="522" 
d="M354 504h183l-190 -235l112 -269h-178l-50 126l-98 -126h-185l216 276l-98 228h178l37 -96z" />
    <glyph glyph-name="y" unicode="y" horiz-adv-x="523" 
d="M-9 -204l134 249l-89 459h178l35 -245l124 245h171l-393 -708h-160z" />
    <glyph glyph-name="z" unicode="z" horiz-adv-x="493" 
d="M57 368l26 136h397l-15 -78l-243 -290h201l-26 -136h-413l14 78l244 290h-185z" />
    <glyph glyph-name="braceleft" unicode="{" horiz-adv-x="342" 
d="M50 56l31 160q3 15 3 27q0 47 -59 47l23 120q39 0 58.5 16.5t27.5 57.5l32 166q8 44 42.5 72t77.5 28h111l-26 -134h-24q-21 0 -32.5 -10t-16.5 -35l-23 -123q-9 -48 -32.5 -70.5t-61.5 -27.5q59 -8 59 -69q0 -14 -3 -29l-24 -123q-1 -7 -1 -14q0 -31 32 -31h24l-26 -134
h-111q-39 0 -61.5 21.5t-22.5 59.5q0 11 3 25z" />
    <glyph glyph-name="bar" unicode="|" horiz-adv-x="282" 
d="M73 750h162v-800h-162v800z" />
    <glyph glyph-name="braceright" unicode="}" horiz-adv-x="342" 
d="M292 644l-31 -160q-3 -15 -3 -27q0 -47 59 -47l-23 -120q-39 0 -58.5 -16.5t-27.5 -57.5l-32 -166q-8 -44 -42.5 -72t-77.5 -28h-111l26 134h24q21 0 32.5 10t16.5 35l23 123q9 48 32.5 70.5t61.5 27.5q-59 8 -59 69q0 14 3 29l24 123q1 7 1 14q0 31 -32 31h-24l26 134
h111q39 0 61.5 -21.5t22.5 -59.5q0 -11 -3 -25z" />
    <glyph glyph-name="asciitilde" unicode="~" horiz-adv-x="601" 
d="M102 230l-71 92q28 51 79 84t108 33q44 0 100 -29t88 -29q51 0 97 57l71 -92q-28 -51 -79 -84t-108 -33q-45 0 -100.5 29t-87.5 29q-51 0 -97 -57z" />
    <glyph glyph-name="exclamdown" unicode="&#xa1;" horiz-adv-x="359" 
d="M181 -204h-196l119 450h132zM292 415q0 -38 -25.5 -63.5t-63.5 -25.5t-63.5 25.5t-25.5 63.5t25.5 63.5t63.5 25.5t63.5 -25.5t25.5 -63.5z" />
    <glyph glyph-name="cent" unicode="&#xa2;" horiz-adv-x="588" 
d="M396 299l134 -60q-77 -120 -195 -142l-29 -147h-138l29 151q-73 20 -114 76.5t-41 129.5q0 112 69 196.5t184 103.5l28 143h138l-29 -147q102 -27 140 -139l-154 -59q-11 67 -81 67q-61 0 -95 -45t-34 -102q0 -43 21.5 -68t62.5 -25q64 0 104 67z" />
    <glyph glyph-name="sterling" unicode="&#xa3;" horiz-adv-x="565" 
d="M43 304l23 120h42q-2 30 -2 47q0 102 66.5 169.5t183.5 67.5q83 0 135 -40.5t71 -107.5l-142 -56q-20 66 -73 66q-50 0 -73.5 -39.5t-23.5 -97.5v-9h165l-23 -120h-139q-2 -53 -26 -100t-68 -77q37 23 80 23q23 0 52 -13t47 -13q21 0 38.5 14t41.5 47l90 -80
q-46 -64 -89.5 -88.5t-100.5 -24.5q-41 0 -88.5 15t-74.5 15q-46 0 -119 -30l-59 84q31 24 51.5 42t44.5 45.5t36.5 59t12.5 65.5q0 8 -1 16h-78z" />
    <glyph glyph-name="currency" unicode="&#xa4;" horiz-adv-x="592" 
d="M11 149l95 67q-21 44 -21 91t21 91l-95 67l117 117l66 -94q42 21 92 21q48 0 92 -21l66 94l117 -117l-95 -67q21 -43 21 -91q0 -47 -21 -91l95 -67l-117 -117l-66 94q-44 -21 -92 -21q-50 0 -92 21l-66 -94zM221 307q0 -32 17.5 -51.5t47.5 -19.5t47.5 19.5t17.5 51.5
t-17.5 51.5t-47.5 19.5t-47.5 -19.5t-17.5 -51.5z" />
    <glyph glyph-name="yen" unicode="&#xa5;" horiz-adv-x="584" 
d="M71 700h183l57 -242l149 242h190l-206 -288h75l-24 -120h-127l-11 -60h127l-24 -120h-127l-22 -112h-178l22 112h-127l24 120h127l11 60h-127l24 120h77z" />
    <glyph glyph-name="brokenbar" unicode="&#xa6;" horiz-adv-x="282" 
d="M73 299h162v-349h-162v349zM235 401h-162v349h162v-349z" />
    <glyph glyph-name="section" unicode="&#xa7;" horiz-adv-x="565" 
d="M502 237q0 -53 -28.5 -93.5t-68.5 -64.5q19 -41 19 -90q0 -80 -58.5 -140.5t-168.5 -60.5q-81 0 -139 42t-64 116l152 46q3 -33 19 -51.5t41 -18.5q26 0 41.5 16t15.5 40q0 33 -27 58t-84 56q-67 36 -93.5 76.5t-26.5 97.5q0 49 28 90.5t68 62.5q-18 37 -18 88
q0 80 58.5 140.5t168.5 60.5q81 0 139 -42t64 -116l-152 -46q-3 33 -19 51.5t-41 18.5q-26 0 -41.5 -16t-15.5 -40q0 -33 27 -58t84 -56q69 -37 94.5 -73.5t25.5 -93.5zM234 314l-17 9q-29 -17 -29 -47q0 -24 21.5 -41t90.5 -53l16 -9q30 20 30 47q0 24 -21.5 41t-90.5 53z
" />
    <glyph glyph-name="guillemotleft" unicode="&#xab;" horiz-adv-x="717" 
d="M24 267l19 94l366 225l-34 -169l-179 -109l137 -112l-30 -158zM324 267l19 94l366 225l-34 -169l-179 -109l137 -112l-30 -158z" />
    <glyph glyph-name="paragraph" unicode="&#xb6;" horiz-adv-x="761" 
d="M62 421q0 119 82.5 199t212.5 80h423l-24 -124h-62l-151 -780h-140l151 780h-81l-151 -780h-140l81 418q-80 0 -140.5 57.5t-60.5 149.5z" />
    <glyph glyph-name="periodcentered" unicode="&#xb7;" horiz-adv-x="294" 
d="M54 375q0 40 26.5 66.5t66.5 26.5t66.5 -26.5t26.5 -66.5t-26.5 -66.5t-66.5 -26.5t-66.5 26.5t-26.5 66.5z" />
    <glyph glyph-name="guillemotright" unicode="&#xbb;" horiz-adv-x="717" 
d="M688 357l-19 -94l-366 -225l34 169l179 109l-137 112l30 158zM388 357l-19 -94l-366 -225l34 169l179 109l-137 112l30 158z" />
    <glyph glyph-name="questiondown" unicode="&#xbf;" horiz-adv-x="459" 
d="M45 171q26 60 63 86t100 26q52 0 95.5 -31.5t43.5 -85.5q0 -56 -32.5 -92t-115.5 -64q-40 -14 -55 -20t-27 -17t-12 -27t13 -26t34 -10q26 0 46 19t25 46l136 -31q-51 -156 -230 -156q-72 0 -122 38.5t-50 97.5q0 76 44 113t146 67q23 7 33.5 11t21.5 13t11 21
q0 21 -23 21t-40 -32zM340 415q0 -38 -25.5 -63.5t-63.5 -25.5t-63.5 25.5t-25.5 63.5t25.5 63.5t63.5 25.5t63.5 -25.5t25.5 -63.5z" />
    <glyph glyph-name="multiply" unicode="&#xd7;" horiz-adv-x="616" 
d="M54 472l99 99l155 -155l155 155l99 -99l-155 -155l155 -155l-99 -99l-155 155l-155 -155l-99 99l155 155z" />
    <glyph glyph-name="germandbls" unicode="&#xdf;" horiz-adv-x="598" 
d="M32 314l26 136h42l10 50q19 101 86.5 154.5t166.5 53.5q94 0 143 -43t49 -111q0 -48 -27 -91t-76 -66q42 -22 67 -65t25 -93q0 -122 -68.5 -184.5t-191.5 -62.5q-64 0 -94 8l27 134q29 -13 68 -13q44 0 73.5 26.5t29.5 78.5q0 42 -26 65t-73 23h-24l26 136h20
q41 0 67 20.5t26 56.5q0 25 -13.5 40t-39.5 15q-31 0 -52.5 -20.5t-28.5 -58.5l-98 -503h-160l62 314h-42z" />
    <glyph glyph-name="endash" unicode="&#x2013;" horiz-adv-x="580" 
d="M32 247l27 140h475l-27 -140h-475z" />
    <glyph glyph-name="emdash" unicode="&#x2014;" horiz-adv-x="766" 
d="M32 247l27 140h661l-27 -140h-661z" />
    <glyph glyph-name="quoteleft" unicode="&#x2018;" horiz-adv-x="306" 
d="M261 708l30 -252h-111l-110 252h191z" />
    <glyph glyph-name="quoteright" unicode="&#x2019;" horiz-adv-x="308" 
d="M44 456l124 252h193l-203 -252h-114z" />
    <glyph glyph-name="quotesinglbase" unicode="&#x201a;" horiz-adv-x="357" 
d="M-16 -14l124 252h193l-203 -252h-114z" />
    <glyph glyph-name="quotedblleft" unicode="&#x201c;" horiz-adv-x="529" 
d="M484 708l30 -252h-111l-110 252h191zM261 708l30 -252h-111l-110 252h191z" />
    <glyph glyph-name="quotedblright" unicode="&#x201d;" horiz-adv-x="529" 
d="M265 456l124 252h193l-203 -252h-114zM44 456l124 252h193l-203 -252h-114z" />
    <glyph glyph-name="quotedblbase" unicode="&#x201e;" horiz-adv-x="578" 
d="M205 -14l124 252h193l-203 -252h-114zM-16 -14l124 252h193l-203 -252h-114z" />
    <glyph glyph-name="bullet" unicode="&#x2022;" horiz-adv-x="369" 
d="M42 330q0 56 39 95t95 39t95 -39t39 -95t-39 -95t-95 -39t-95 39t-39 95z" />
    <glyph glyph-name="ellipsis" unicode="&#x2026;" horiz-adv-x="966" 
d="M662 85q0 40 26.5 66.5t66.5 26.5t66.5 -26.5t26.5 -66.5t-26.5 -66.5t-66.5 -26.5t-66.5 26.5t-26.5 66.5zM340 85q0 40 26.5 66.5t66.5 26.5t66.5 -26.5t26.5 -66.5t-26.5 -66.5t-66.5 -26.5t-66.5 26.5t-26.5 66.5zM18 85q0 40 26.5 66.5t66.5 26.5t66.5 -26.5
t26.5 -66.5t-26.5 -66.5t-66.5 -26.5t-66.5 26.5t-26.5 66.5z" />
    <glyph glyph-name="perthousand" unicode="&#x2030;" horiz-adv-x="1284" 
d="M873 126q0 76 54 131t142 55q66 0 106 -37.5t40 -100.5q0 -74 -54.5 -128t-138.5 -54q-68 0 -108.5 37t-40.5 97zM1054 206q-26 0 -44.5 -19t-18.5 -47q0 -19 12.5 -30.5t32.5 -11.5q25 0 43 18.5t18 44.5q0 21 -11.5 33t-31.5 12zM59 522q0 76 54 131t142 55
q66 0 106 -37.5t40 -100.5q0 -74 -54.5 -128t-138.5 -54q-68 0 -108.5 37t-40.5 97zM240 602q-26 0 -44.5 -19t-18.5 -47q0 -19 12.5 -30.5t32.5 -11.5q25 0 43 18.5t18 44.5q0 21 -11.5 33t-31.5 12zM466 126q0 76 54 131t142 55q66 0 106 -37.5t40 -100.5
q0 -74 -54.5 -128t-138.5 -54q-68 0 -108.5 37t-40.5 97zM647 206q-26 0 -44.5 -19t-18.5 -47q0 -19 12.5 -30.5t32.5 -11.5q25 0 43 18.5t18 44.5q0 21 -11.5 33t-31.5 12zM743 745l75 -70l-678 -719l-74 70z" />
    <glyph glyph-name="guilsinglleft" unicode="&#x2039;" horiz-adv-x="417" 
d="M24 267l19 94l366 225l-34 -169l-179 -109l137 -112l-30 -158z" />
    <glyph glyph-name="guilsinglright" unicode="&#x203a;" horiz-adv-x="417" 
d="M388 357l-19 -94l-366 -225l34 169l179 109l-137 112l30 158z" />
    <glyph glyph-name="Euro" unicode="&#x20ac;" horiz-adv-x="632" 
d="M20 368l82 124h41q50 113 132.5 164.5t182.5 51.5q155 0 209 -121l-142 -75q-24 60 -87 60q-88 0 -134 -80h200l-82 -124h-160l-7 -36h218l-82 -124h-142q19 -72 104 -72q70 0 117 66l109 -83q-91 -127 -245 -127q-93 0 -159 52t-82 164h-103l81 124h28l7 36h-86z" />
    <glyph glyph-name="minus" unicode="&#x2212;" horiz-adv-x="601" 
d="M59 387h496l-27 -140h-496z" />
    <glyph glyph-name="apple" unicode="&#xf8ff;" horiz-adv-x="736" 
d="M664 617v-595q0 -9 -6.5 -15.5t-15.5 -6.5q-3 0 -7 1l-267 77l-267 -77q-4 -1 -7 -1q-9 0 -15.5 6.5t-6.5 15.5v595q0 17 16 22l270 78q6 2 10 2t10 -2l270 -78q16 -5 16 -22zM346 366v303l-230 -67q6 -94 71.5 -161t158.5 -75zM390 669v-303q93 8 158.5 75t71.5 161z
M115 463v-412l231 67v204q-73 6 -134 43.5t-97 97.5zM621 51v412q-37 -60 -97.5 -97.5t-133.5 -43.5v-204z" />
    </font>
</defs>
</svg>
