<?xml version="1.0" standalone="no"?>
<!DOCTYPE svg PUBLIC "-//W3C//DTD SVG 1.1//EN" "http://www.w3.org/Graphics/SVG/1.1/DTD/svg11.dtd" >
<svg>
<metadata>
Created by FontForge 20120731 at Mon Mar 28 07:22:00 2016
 By ,,,
SIL Open Font License (OFL)
</metadata>
<defs>
<font id="Reglo-Bold" horiz-adv-x="494" >
  <font-face 
    font-family="Reglo"
    font-weight="700"
    font-stretch="normal"
    units-per-em="1000"
    panose-1="0 0 0 0 0 0 0 0 0 0"
    ascent="769"
    descent="-231"
    x-height="560"
    cap-height="741"
    bbox="-20 -231 826 950"
    underline-thickness="50"
    underline-position="-50"
    unicode-range="U+0020-2026"
  />
<missing-glyph horiz-adv-x="500" 
d="M0 0v700h500v-700h-500zM250 395l170 255h-340zM280 350l170 -255v510zM80 50h340l-170 255zM50 605v-510l170 255z" />
    <glyph glyph-name=".notdef" horiz-adv-x="500" 
d="M0 0v700h500v-700h-500zM250 395l170 255h-340zM280 350l170 -255v510zM80 50h340l-170 255zM50 605v-510l170 255z" />
    <glyph glyph-name=".null" horiz-adv-x="0" 
 />
    <glyph glyph-name="nonmarkingreturn" horiz-adv-x="333" 
 />
    <glyph glyph-name="space" unicode=" " horiz-adv-x="250" 
 />
    <glyph glyph-name="exclam" unicode="!" horiz-adv-x="306" 
d="M88 769h130v-538h-130v538zM153 185q38 0 65.5 -27t27.5 -65t-27.5 -65.5t-65.5 -27.5q-37 0 -65 25.5t-28 57.5q0 45 27 73.5t66 28.5z" />
    <glyph glyph-name="quotedbl" unicode="&#x22;" horiz-adv-x="453" 
d="M200 741v-258h-140l1 258h139zM393 741v-258h-140l1 258h139z" />
    <glyph glyph-name="numbersign" unicode="#" horiz-adv-x="604" 
d="M470 404l-8 -67h62v-118h-78l-29 -219h-130l29 219h-68l-29 -219h-130l29 219h-38v118h54l8 67h-62v118h78l29 219h130l-29 -219h68l29 219h130l-29 -219h38v-118h-54zM341 404h-68l-9 -67h68z" />
    <glyph glyph-name="ampersand" unicode="&#x26;" horiz-adv-x="644" 
d="M497 308v-84q0 -37 28 -65t66 -28v-131q-95 0 -159 66q-66 -66 -159 -66q-92 0 -157.5 65.5t-65.5 157.5q0 89 57 149q-57 63 -57 150q0 93 65.5 158.5t157.5 65.5q93 0 158.5 -65.5t65.5 -158.5h-140q0 36 -24 64.5t-60 28.5q-41 0 -67 -26.5t-26 -66.5q0 -35 27 -59
t59 -25h328v-130h-97zM366 308h-99q-32 0 -59.5 -25t-27.5 -60q0 -40 26 -66t67 -26q38 0 65.5 28.5t27.5 63.5v85z" />
    <glyph glyph-name="quotesingle" unicode="'" horiz-adv-x="260" 
d="M200 741v-258h-140l1 258h139z" />
    <glyph glyph-name="parenleft" unicode="(" horiz-adv-x="438" 
d="M338 671h-44q-25 0 -45 -19t-20 -45v-459q0 -28 18.5 -46t46.5 -18h44v-130h-44q-80 0 -137 57t-57 137v459q0 80 57 137t137 57h44v-130z" />
    <glyph glyph-name="parenright" unicode=")" horiz-adv-x="438" 
d="M100 84h43q28 0 46.5 18.5t18.5 45.5v459q0 27 -19.5 45.5t-45.5 18.5h-43v130h43q81 0 138 -57t57 -137v-459q0 -80 -57 -137t-138 -57h-43v130z" />
    <glyph glyph-name="asterisk" unicode="*" horiz-adv-x="471" 
d="M322 569l89 -43l-50 -88l-83 56l8 -100l-101 1l7 98l-81 -55l-51 87l90 43l-90 44l50 86l82 -55l-7 98l100 1l-7 -100l83 57l50 -88z" />
    <glyph glyph-name="plus" unicode="+" horiz-adv-x="638" 
d="M548 235h-164v-165h-130v165h-164v129h164v164h130v-164h164v-129z" />
    <glyph glyph-name="comma" unicode="," horiz-adv-x="280" 
d="M240 185l-93 -258h-127l74 258h146z" />
    <glyph glyph-name="hyphen" unicode="-" horiz-adv-x="458" 
d="M50 361h358v-129h-358v129z" />
    <glyph glyph-name="period" unicode="." horiz-adv-x="266" 
d="M133 185q38 0 65.5 -27t27.5 -65t-27.5 -65.5t-65.5 -27.5q-39 0 -66 27.5t-27 65.5t27 65t66 27z" />
    <glyph glyph-name="slash" unicode="/" horiz-adv-x="485" 
d="M346 741h129l-296 -741h-129z" />
    <glyph glyph-name="zero" unicode="0" horiz-adv-x="544" 
d="M271 746q92 0 157.5 -65.5t65.5 -158.5v-305q0 -91 -65.5 -156t-157.5 -65q-91 0 -156 65t-65 156v305q0 93 65 158.5t156 65.5zM271 616q-37 0 -64.5 -28t-27.5 -66v-215l147 290q-24 19 -55 19zM271 125q38 0 66 28t28 64v238l-156 -308q27 -22 62 -22z" />
    <glyph glyph-name="one" unicode="1" horiz-adv-x="544" 
d="M50 0v130h157v481h-157v130h287v-611h157v-130h-444z" />
    <glyph glyph-name="two" unicode="2" horiz-adv-x="547" 
d="M312 287q-41 -22 -80.5 -63t-39.5 -93h305v-131h-447v103q0 90 55.5 167.5t168.5 130.5q93 44 93 121q0 37 -28 65t-65 28q-38 0 -66 -28t-28 -65h-130q0 93 65.5 158.5t158.5 65.5q92 0 157.5 -65.5t65.5 -158.5q0 -39 -11 -72.5t-23.5 -54t-37.5 -41t-38.5 -28.5
t-42 -22.5t-32.5 -16.5z" />
    <glyph glyph-name="three" unicode="3" horiz-adv-x="547" 
d="M224 434h56q33 1 60 25t27 59q0 40 -26.5 66.5t-66.5 26.5q-36 0 -60 -28.5t-24 -64.5h-140q0 93 65.5 158.5t158.5 65.5q92 0 157.5 -65.5t65.5 -158.5q0 -87 -57 -150q57 -60 57 -149q0 -92 -65.5 -157.5t-157.5 -65.5q-93 0 -158.5 65.5t-65.5 157.5h130
q0 -35 28 -63.5t66 -28.5q41 0 67 26t26 66q0 35 -27.5 60t-59.5 25h-56v130z" />
    <glyph glyph-name="four" unicode="4" horiz-adv-x="579" 
d="M529 222h-83v-222h-130v222h-266v128l266 391h130v-398h83v-121zM316 343v201l-133 -201h133z" />
    <glyph glyph-name="five" unicode="5" horiz-adv-x="544" 
d="M50 741h416v-130h-287v-166h93q92 0 157 -65t65 -158q0 -92 -65 -157t-157 -65t-157 65t-65 157h129q0 -38 27 -65t66 -27q38 0 65.5 27.5t27.5 64.5t-28 65t-65 28h-222v426z" />
    <glyph glyph-name="six" unicode="6" horiz-adv-x="547" 
d="M50 219v299q0 93 65.5 158.5t158.5 65.5q92 0 157.5 -65.5t65.5 -158.5h-130q0 37 -28 65t-65 28q-38 0 -66 -28t-28 -65v-93q62 18 94 18q92 0 157.5 -65.5t65.5 -158.5q0 -92 -65.5 -157.5t-157.5 -65.5q-93 0 -158.5 65.5t-65.5 157.5zM274 313q-37 0 -65.5 -27.5
t-28.5 -66.5q0 -38 27 -65t67 -27q37 0 65 27.5t28 64.5t-28 65.5t-65 28.5z" />
    <glyph glyph-name="seven" unicode="7" horiz-adv-x="536" 
d="M486 741v-130l-287 -611h-149l287 611h-287v130h436z" />
    <glyph glyph-name="eight" unicode="8" horiz-adv-x="547" 
d="M106 368q-56 64 -56 150q0 92 65.5 158t158.5 66q92 0 157.5 -66t65.5 -158q0 -87 -57 -150q57 -60 57 -149q0 -92 -65.5 -157.5t-157.5 -65.5q-93 0 -158.5 65.5t-65.5 157.5q0 88 56 149zM274 610q-38 0 -66 -27.5t-28 -64.5q0 -38 27.5 -65.5t66.5 -27.5
q38 0 65.5 27.5t27.5 65.5q0 37 -28 64.5t-65 27.5zM274 313q-38 0 -66 -27.5t-28 -66.5q0 -38 27.5 -65t66.5 -27q37 0 65 27.5t28 64.5t-27.5 65.5t-65.5 28.5z" />
    <glyph glyph-name="nine" unicode="9" horiz-adv-x="547" 
d="M497 518v-298q0 -93 -65.5 -158.5t-158.5 -65.5q-92 0 -157.5 65.5t-65.5 158.5h130q0 -37 28 -65t65 -28q38 0 66 27.5t28 65.5v93q-65 -19 -94 -19q-92 0 -157.5 65.5t-65.5 158.5t65.5 158.5t157.5 65.5q93 0 158.5 -65.5t65.5 -158.5zM273 425q37 0 65.5 27t28.5 66
t-27 66t-67 27q-37 0 -65 -27.5t-28 -65.5q0 -37 28 -65t65 -28z" />
    <glyph glyph-name="colon" unicode=":" horiz-adv-x="266" 
d="M133 435q39 0 66 -27t27 -65t-27 -65.5t-66 -27.5q-38 0 -65.5 27.5t-27.5 65.5t27.5 65t65.5 27zM133 185q39 0 66 -27t27 -65t-27 -65.5t-66 -27.5q-38 0 -65.5 27.5t-27.5 65.5t27.5 65t65.5 27z" />
    <glyph glyph-name="semicolon" unicode=";" horiz-adv-x="279" 
d="M160 435q39 0 66 -27t27 -65t-27 -65.5t-66 -27.5q-38 0 -65 27.5t-27 65.5t27 65t65 27zM240 185l-93 -258h-127l74 258h146z" />
    <glyph glyph-name="less" unicode="&#x3c;" horiz-adv-x="537" 
d="M462 431l-260 -118l260 -119v-145l-387 181v165l387 183v-147z" />
    <glyph glyph-name="equal" unicode="=" horiz-adv-x="638" 
d="M90 463h458v-129h-458v129zM90 260h458v-130h-458v130z" />
    <glyph glyph-name="greater" unicode="&#x3e;" horiz-adv-x="537" 
d="M462 395v-165l-387 -181v145l260 119l-260 118v147z" />
    <glyph glyph-name="question" unicode="?" horiz-adv-x="594" 
d="M297 606q-39 0 -68 -28.5t-29 -68.5h-140q0 98 69.5 167.5t167.5 69.5q97 0 167 -70t70 -167q0 -98 -69.5 -167.5t-167.5 -69.5v-59h-117v198h117q39 0 68 29t29 69q0 39 -29 68t-68 29zM240 185q38 0 65.5 -27t27.5 -65t-27.5 -65.5t-65.5 -27.5t-65 27.5t-27 65.5
t27 65t65 27z" />
    <glyph glyph-name="at" unicode="@" horiz-adv-x="637" 
d="M587 446v-338h-129v36q-41 -41 -93 -41q-70 0 -113.5 43t-43.5 117q0 84 54.5 128t153.5 44h42v6q0 43 -40 72.5t-99 29.5q-56 0 -97.5 -29.5t-41.5 -72.5h-1v-306h1q0 -55 41.5 -92t97.5 -37q46 0 83.5 17t55.5 48l112 -52q-24 -56 -95 -99.5t-156 -43.5q-125 0 -197 73
t-72 186v311q2 95 81.5 160.5t187.5 65.5q115 0 190.5 -64.5t77.5 -161.5zM393 222q27 0 46 18.5t19 56.5v29h-6q-18 0 -27.5 -0.5t-28 -3t-29 -7.5t-19 -16t-8.5 -27q0 -24 14.5 -37t38.5 -13z" />
    <glyph glyph-name="A" unicode="A" horiz-adv-x="558" 
d="M373 185h-188l-45 -185h-130l181 741h176l181 -741h-130zM344 305l-65 264l-64 -264h129z" />
    <glyph glyph-name="B" unicode="B" horiz-adv-x="544" 
d="M443 371q66 -58 66 -149q0 -92 -65.5 -157t-157.5 -65h-221v741h221q92 0 157.5 -65.5t65.5 -157.5q0 -91 -66 -147zM194 611v-185h92q38 0 65.5 27.5t27.5 64.5q0 38 -27.5 65.5t-65.5 27.5h-92zM194 130h92q38 0 65.5 27.5t27.5 64.5q0 38 -27.5 65.5t-65.5 27.5h-92
v-185z" />
    <glyph glyph-name="C" unicode="C" horiz-adv-x="534" 
d="M359 449v73q-1 38 -28.5 66t-64.5 28q-37 -1 -64.5 -28.5t-27.5 -65.5v-305q1 -43 27.5 -67.5t64.5 -24.5q38 1 65.5 28t27.5 64v75h130v-75q0 -91 -65.5 -156t-157.5 -65q-91 0 -156 65t-65 156v305q0 93 65 158.5t156 65.5q92 0 157.5 -65.5t65.5 -158.5v-73h-130z" />
    <glyph glyph-name="D" unicode="D" horiz-adv-x="554" 
d="M65 741h221q92 0 157.5 -65.5t65.5 -157.5v-296q0 -92 -65.5 -157t-157.5 -65h-221v741zM195 130h91q38 1 66 28t28 64v296q-1 39 -28.5 66t-65.5 27h-91v-481z" />
    <glyph glyph-name="E" unicode="E" 
d="M194 611v-176h250v-129h-250v-176h250v-130h-379v741h379v-130h-250z" />
    <glyph glyph-name="F" unicode="F" 
d="M194 611v-176h250v-129h-250v-306h-129v741h379v-130h-250z" />
    <glyph glyph-name="G" unicode="G" horiz-adv-x="535" 
d="M490 427v-205q0 -92 -65.5 -157t-157.5 -65q-91 0 -156.5 65t-65.5 157v296q0 92 65 157.5t157 65.5t157.5 -65.5t65.5 -157.5h-129q-1 38 -28.5 65t-65.5 27t-65.5 -28t-27.5 -64v-296q1 -37 28.5 -64.5t64.5 -27.5q39 1 66.5 28t27.5 64v75h-94v130h223z" />
    <glyph glyph-name="H" unicode="H" horiz-adv-x="574" 
d="M509 741v-741h-129v306h-186v-306h-129v741h129v-306h186v306h129z" />
    <glyph glyph-name="I" unicode="I" horiz-adv-x="268" 
d="M69 741v-741h130v741h-130z" />
    <glyph glyph-name="J" unicode="J" horiz-adv-x="527" 
d="M478 741v-524q0 -91 -65 -156t-156 -65q-93 0 -158.5 65t-65.5 156v75h130v-75q0 -37 28 -64t66 -28q38 0 64 24.5t27 67.5v524h130z" />
    <glyph glyph-name="K" unicode="K" horiz-adv-x="556" 
d="M324 422l212 -422h-148l-156 310l-37 -60v-250h-130v741h130v-293l193 293h148z" />
    <glyph glyph-name="L" unicode="L" horiz-adv-x="478" 
d="M445 130v-130h-380v741h130v-611h250z" />
    <glyph glyph-name="M" unicode="M" horiz-adv-x="668" 
d="M603 741v-741h-130v485l-64 -249h-148l-66 256v-492h-130v741h168l103 -353l110 353h157z" />
    <glyph glyph-name="N" unicode="N" horiz-adv-x="574" 
d="M509 741v-741h-130l-185 438v-438h-129v741h130l185 -438v438h129z" />
    <glyph glyph-name="O" unicode="O" horiz-adv-x="534" 
d="M266 746q92 0 157.5 -65.5t65.5 -158.5v-305q0 -91 -65.5 -156t-157.5 -65q-91 0 -156 65t-65 156v305q0 93 65 158.5t156 65.5zM266 125q38 1 66 28t28 64v305q-1 38 -28.5 66t-65.5 28q-37 -1 -64.5 -28.5t-27.5 -65.5v-305q1 -43 27.5 -67.5t64.5 -24.5z" />
    <glyph glyph-name="P" unicode="P" horiz-adv-x="540" 
d="M65 741h222q92 0 157.5 -65.5t65.5 -157.5v-28q0 -91 -65.5 -156t-157.5 -65h-92v-269h-130v741zM195 398h92q38 1 65.5 28t27.5 64v28q-1 39 -28 66t-65 27h-92v-213z" />
    <glyph glyph-name="Q" unicode="Q" horiz-adv-x="534" 
d="M489 522v-305q0 -95 -70 -160q52 -59 52 -136h-127q-2 64 -61 76l-17 -1q-91 0 -156 65t-65 156v305q0 93 65 158.5t156 65.5q92 0 157.5 -65.5t65.5 -158.5zM174 522v-305q1 -43 27.5 -67.5t64.5 -24.5q38 1 66 28t28 64v305q-1 38 -28.5 66t-65.5 28
q-37 -1 -64.5 -28.5t-27.5 -65.5z" />
    <glyph glyph-name="R" unicode="R" horiz-adv-x="555" 
d="M248 269h-53v-269h-130v741h221q93 0 158.5 -65.5t65.5 -157.5v-28q0 -64 -33.5 -117t-89.5 -80l128 -293h-149zM195 611v-213h91q38 1 66 28t28 64v28q-1 39 -28.5 66t-65.5 27h-91z" />
    <glyph glyph-name="S" unicode="S" horiz-adv-x="524" 
d="M261 130q-37 0 -63.5 27t-28.5 65h-129q0 -91 65 -156.5t156 -65.5q93 0 158 61t65 151q0 122 -138 198q-16 9 -46 23t-48 23.5t-37.5 22.5t-29 27t-9.5 30q0 37 23 56t62 19q38 0 65 -27t29 -66h129q0 92 -65.5 157.5t-157.5 65.5t-156.5 -61.5t-64.5 -152.5
q0 -63 33 -111t82 -76q22 -13 81 -39.5t85 -47.5t26 -50q0 -32 -24 -52.5t-62 -20.5z" />
    <glyph glyph-name="T" unicode="T" horiz-adv-x="484" 
d="M464 611h-157v-611h-130v611h-157v130h444v-130z" />
    <glyph glyph-name="U" unicode="U" horiz-adv-x="564" 
d="M504 741v-524q0 -91 -65.5 -156t-157.5 -65q-91 0 -156 65t-65 156v524h129v-524q1 -43 27.5 -67.5t64.5 -24.5q38 1 66 28t28 64v524h129z" />
    <glyph glyph-name="V" unicode="V" 
d="M474 741l-139 -741h-176l-139 741h130l97 -517l97 517h130z" />
    <glyph glyph-name="W" unicode="W" horiz-adv-x="740" 
d="M722 741l-139 -741h-139l-74 422l-74 -422h-139l-139 741h130l81 -467l76 467h130l76 -467l81 467h130z" />
    <glyph glyph-name="X" unicode="X" horiz-adv-x="520" 
d="M329 380l173 -380h-139l-103 238l-103 -238h-139l173 380l-173 361h139l103 -227l103 227h139z" />
    <glyph glyph-name="Y" unicode="Y" horiz-adv-x="502" 
d="M492 741l-177 -444v-297h-130v297l-175 444h139l101 -271l103 271h139z" />
    <glyph glyph-name="Z" unicode="Z" horiz-adv-x="478" 
d="M438 611l-259 -481h259v-130h-398v130l259 481h-259v130h398v-130z" />
    <glyph glyph-name="backslash" unicode="\" horiz-adv-x="600" 
d="M421 0l-296 741h129l296 -741h-129z" />
    <glyph glyph-name="asciicircum" unicode="^" horiz-adv-x="649" 
d="M442 354l-118 260l-119 -260h-145l181 387h165l183 -387h-147z" />
    <glyph glyph-name="underscore" unicode="_" horiz-adv-x="550" 
d="M0 -61h550v-99h-550v99z" />
    <glyph glyph-name="grave" unicode="`" horiz-adv-x="504" 
d="M147 760l80 -153h120l-61 153h-139z" />
    <glyph glyph-name="a" unicode="a" horiz-adv-x="478" 
d="M428 375v-375h-130v42q-48 -46 -111 -46q-70 0 -113.5 43t-43.5 117q0 84 54.5 127.5t153.5 43.5h60v44q0 29 -18 46.5t-47 17.5t-46.5 -17.5t-17.5 -46.5h-130q0 87 53.5 140.5t140.5 53.5t140 -52t55 -138zM215 114q33 0 58 21.5t25 54.5v29h-24q-18 0 -27.5 -0.5
t-28 -3t-29 -7.5t-19 -16t-8.5 -27q0 -24 14.5 -37.5t38.5 -13.5z" />
    <glyph glyph-name="b" unicode="b" horiz-adv-x="499" 
d="M449 371v-181q2 -87 -47 -140.5t-120 -53.5q-53 0 -92 37v-33h-130v769h130v-241q39 37 92 37q71 0 120 -53.5t47 -140.5zM255 125q26 0 45 19t19 46v181q0 27 -19 45.5t-45 18.5q-27 0 -46 -18.5t-19 -45.5v-181q0 -27 19 -46t46 -19z" />
    <glyph glyph-name="c" unicode="c" horiz-adv-x="479" 
d="M309 351v20q0 27 -18.5 45.5t-45.5 18.5t-46 -18.5t-19 -45.5v-181q0 -27 19 -46t46 -19t45.5 19t18.5 46v20h130v-20q0 -80 -57 -137t-137 -57q-79 0 -136 55t-59 134v190q2 79 58.5 134.5t136.5 55.5t137 -57t57 -137v-20h-130z" />
    <glyph glyph-name="d" unicode="d" horiz-adv-x="508" 
d="M448 769v-769h-129v36q-42 -40 -97 -40q-72 0 -123 54t-49 140v181q-2 87 53.5 140.5t136.5 53.5q42 0 79 -25v229h129zM249 125q28 0 49 19t21 46v181q0 27 -21 45.5t-49 18.5q-27 0 -48 -18.5t-21 -45.5v-181q0 -27 21 -46t48 -19z" />
    <glyph glyph-name="e" unicode="e" horiz-adv-x="489" 
d="M245 565q80 0 137 -57t57 -137v-129h-259v-52q0 -33 18.5 -51t46.5 -18q29 0 49 18.5t20 50.5h125q0 -80 -59.5 -137t-140.5 -57q-86 0 -137.5 55.5t-51.5 138.5v181q0 80 57 137t138 57zM314 350v21q0 32 -20.5 51.5t-48.5 19.5q-27 0 -46 -19t-19 -52v-21h134z" />
    <glyph glyph-name="f" unicode="f" horiz-adv-x="335" 
d="M340 639h-65q-26 0 -45 -19t-19 -46v-13h111v-117h-111v-444h-130v444h-56v117h56v13q0 81 57 138t137 57h65v-130z" />
    <glyph glyph-name="g" unicode="g" horiz-adv-x="499" 
d="M439 560v-597q0 -80 -57 -137t-138 -57q-80 0 -137 57t-57 137h130q0 -27 18.5 -46t45.5 -19t46 18.5t19 46.5v79q-44 -42 -102 -42q-75 0 -117 52.5t-40 142.5v176q-2 87 47 140.5t120 53.5q53 0 92 -37v32h130zM244 130q27 0 46 19t19 46v176q0 27 -19 45.5t-46 18.5
q-26 0 -45 -18.5t-19 -45.5v-176q0 -27 19 -46t45 -19z" />
    <glyph glyph-name="h" unicode="h" horiz-adv-x="508" 
d="M287 565q71 0 122 -54t49 -140v-371h-130v371q0 27 -20 45.5t-49 18.5q-27 0 -48.5 -19t-21.5 -45v-371h-129v769h129v-244q42 40 98 40z" />
    <glyph glyph-name="i" unicode="i" horiz-adv-x="249" 
d="M124 769q33 0 56.5 -23.5t23.5 -56.5q0 -32 -23.5 -55t-56.5 -23t-56 23t-23 55q0 33 23 56.5t56 23.5zM189 0h-130v560h130v-560z" />
    <glyph glyph-name="j" unicode="j" horiz-adv-x="252" 
d="M127 611q-33 0 -56 23t-23 55q0 33 23 56.5t56 23.5q32 0 56 -23.5t24 -56.5q0 -32 -24 -55t-56 -23zM65 560h130v-597q0 -80 -57 -137t-138 -57v129q27 0 46 18.5t19 46.5v597z" />
    <glyph glyph-name="k" unicode="k" horiz-adv-x="461" 
d="M308 301l141 -301h-146l-114 255v-255h-129v769h129v-430l117 221h145z" />
    <glyph glyph-name="l" unicode="l" horiz-adv-x="250" 
d="M190 0h-130v769h130v-769z" />
    <glyph glyph-name="m" unicode="m" horiz-adv-x="777" 
d="M547 565q77 0 129.5 -53.5t50.5 -140.5v-371h-130v371q0 27 -20 45.5t-49 18.5q-27 0 -47.5 -18t-21.5 -44v-2v-371h-130v371q0 27 -20.5 45.5t-49.5 18.5q-27 0 -48 -19t-21 -45v-371h-130v561h130v-36q42 40 97 40q77 0 128 -60q55 60 132 60z" />
    <glyph glyph-name="n" unicode="n" horiz-adv-x="508" 
d="M287 565q71 0 121 -53.5t50 -140.5v-371h-130v371q0 27 -20 45.5t-49 18.5q-27 0 -48.5 -19t-21.5 -45v-371h-130v560h130v-35q42 40 98 40z" />
    <glyph glyph-name="o" unicode="o" horiz-adv-x="489" 
d="M439 370v-176h-1q0 -81 -57 -138t-137 -57t-137 57t-57 138v176q0 80 57 137t137 57t137 -57t57 -137h1zM310 194v176h-1q0 27 -19 45.5t-46 18.5q-26 0 -45.5 -18.5t-19.5 -45.5v-176q0 -27 19 -46t46 -19q28 0 46.5 19t18.5 46h1z" />
    <glyph glyph-name="p" unicode="p" horiz-adv-x="499" 
d="M449 371v-180q2 -87 -47 -141t-120 -54q-53 0 -92 37v-264h-130v792h130v-33q39 37 92 37q71 0 120 -53.5t47 -140.5zM255 126q26 0 45 19t19 46v180q0 27 -19 45.5t-45 18.5q-27 0 -46 -18.5t-19 -45.5v-180q0 -27 19 -46t46 -19z" />
    <glyph glyph-name="q" unicode="q" horiz-adv-x="499" 
d="M439 560v-791h-130v264q-39 -37 -92 -37q-71 0 -120 53.5t-47 140.5v181q-2 87 47 140.5t120 53.5q53 0 92 -37v32h130zM244 125q27 0 46 19t19 46v181q0 27 -19 45.5t-46 18.5q-26 0 -45 -18.5t-19 -45.5v-181q0 -27 19 -46t45 -19z" />
    <glyph glyph-name="r" unicode="r" horiz-adv-x="342" 
d="M342 560v-129h-55q-32 0 -64.5 -25t-32.5 -68v-338h-130v560h130v-39q42 39 97 39h55z" />
    <glyph glyph-name="s" unicode="s" horiz-adv-x="428" 
d="M263 380v14q0 22 -13 36.5t-36 14.5q-17 0 -30.5 -11t-13.5 -28q0 -9 5 -16.5t17.5 -15.5t22.5 -13t33 -16t36 -18q20 -10 34.5 -20t34 -28t30 -45.5t10.5 -60.5q0 -78 -49 -125.5t-129 -47.5q-81 0 -130.5 47.5t-49.5 124.5v13h130v-13q0 -22 13 -36.5t37 -14.5
q18 0 31 10.5t13 27.5q0 23 -28.5 42t-102.5 52q-93 41 -93 139q0 71 52.5 122t126.5 51t126.5 -50.5t52.5 -120.5v-14h-130z" />
    <glyph glyph-name="t" unicode="t" horiz-adv-x="340" 
d="M325 130v-130h-84q-81 0 -128.5 44t-47.5 123v277h-55v117h55v144h130v-144h111v-117h-111v-249q0 -27 19.5 -46t45.5 -19h65z" />
    <glyph glyph-name="u" unicode="u" horiz-adv-x="508" 
d="M448 560v-560h-129v36q-42 -40 -97 -40q-72 0 -122.5 54t-49.5 140v370h130v-370q0 -27 20 -46t49 -19q27 0 48.5 19t21.5 46v370h129z" />
    <glyph glyph-name="v" unicode="v" horiz-adv-x="418" 
d="M413 560l-130 -560h-148l-130 560h130l76 -353l81 353h121z" />
    <glyph glyph-name="w" unicode="w" horiz-adv-x="732" 
d="M727 560l-130 -560h-148l-83 360l-83 -360h-148l-130 560h130l78 -339l79 339h148l79 -339l78 339h130z" />
    <glyph glyph-name="x" unicode="x" horiz-adv-x="437" 
d="M294 292l143 -292h-146l-72 168l-73 -168h-146l143 292l-143 268h146l73 -152l72 152h146z" />
    <glyph glyph-name="y" unicode="y" horiz-adv-x="437" 
d="M427 560l-203 -790h-121l57 230h-2l-158 560h130l87 -331l83 331h127z" />
    <glyph glyph-name="z" unicode="z" horiz-adv-x="429" 
d="M399 445l-209 -320h209v-125h-369v116l207 319h-207v125h369v-115z" />
    <glyph glyph-name="exclamdown" unicode="&#xa1;" horiz-adv-x="306" 
d="M60 482q0 32 28 57.5t65 25.5q38 0 65.5 -27.5t27.5 -65.5t-27.5 -65t-65.5 -27q-39 0 -66 28.5t-27 73.5zM218 334v-538h-130v538h130z" />
    <glyph glyph-name="dieresis" unicode="&#xa8;" horiz-adv-x="497" 
d="M174 742q27 0 46 -16.5t19 -39.5t-19 -40t-46 -17t-45.5 17t-18.5 40t18.5 39.5t45.5 16.5zM340 742q27 0 46 -16.5t19 -39.5t-19 -40t-46 -17t-45.5 17t-18.5 40t18.5 39.5t45.5 16.5z" />
    <glyph glyph-name="acute" unicode="&#xb4;" horiz-adv-x="504" 
d="M157 607h120l80 153h-139z" />
    <glyph glyph-name="periodcentered" unicode="&#xb7;" horiz-adv-x="325" 
d="M162 435q39 0 66 -27t27 -65t-27 -65.5t-66 -27.5q-38 0 -65 27.5t-27 65.5t27 65t65 27z" />
    <glyph glyph-name="questiondown" unicode="&#xbf;" horiz-adv-x="600" 
d="M148 472q0 38 27 65.5t65 27.5t65.5 -27.5t27.5 -65.5t-27.5 -65t-65.5 -27t-65 27t-27 65zM394 56q0 40 -29 69t-68 29h-117v198h117v-59q98 0 167.5 -69.5t69.5 -167.5t-70 -167.5t-167 -69.5q-98 0 -167.5 69.5t-69.5 167.5h140q0 -40 29 -68.5t68 -28.5t68 29t29 68z
" />
    <glyph glyph-name="Agrave" unicode="&#xc0;" horiz-adv-x="558" 
d="M222 797l-80 153h139l61 -153h-120zM373 185h-188l-45 -185h-130l181 741h176l181 -741h-130zM344 305l-65 264l-64 -264h129z" />
    <glyph glyph-name="Acircumflex" unicode="&#xc2;" horiz-adv-x="558" 
d="M244 797h-120l61 153h169l62 -153h-121l-25 116zM373 185h-188l-45 -185h-130l181 741h176l181 -741h-130zM344 305l-65 264l-64 -264h129z" />
    <glyph glyph-name="Egrave" unicode="&#xc8;" 
d="M189 797l-80 153h139l61 -153h-120zM194 611v-176h250v-129h-250v-176h250v-130h-379v741h379v-130h-250z" />
    <glyph glyph-name="Eacute" unicode="&#xc9;" 
d="M279 797h-120l61 153h139zM194 611v-176h250v-129h-250v-176h250v-130h-379v741h379v-130h-250z" />
    <glyph glyph-name="Ecircumflex" unicode="&#xca;" 
d="M235 797h-120l61 153h169l62 -153h-121l-25 116zM194 611v-176h250v-129h-250v-176h250v-130h-379v741h379v-130h-250z" />
    <glyph glyph-name="Edieresis" unicode="&#xcb;" 
d="M177 819q-27 0 -45.5 17t-18.5 40t18.5 39.5t45.5 16.5t46 -16.5t19 -39.5t-19 -40t-46 -17zM343 819q-27 0 -45.5 17t-18.5 40t18.5 39.5t45.5 16.5t46 -16.5t19 -39.5t-19 -40t-46 -17zM194 611v-176h250v-129h-250v-176h250v-130h-379v741h379v-130h-250z" />
    <glyph glyph-name="Idieresis" unicode="&#xcf;" horiz-adv-x="268" 
d="M44 932q27 0 46 -16.5t19 -39.5t-19 -40t-46 -17t-45.5 17t-18.5 40t18.5 39.5t45.5 16.5zM210 932q27 0 46 -16.5t19 -39.5t-19 -40t-46 -17t-45.5 17t-18.5 40t18.5 39.5t45.5 16.5zM69 741v-741h130v741h-130z" />
    <glyph glyph-name="agrave" unicode="&#xe0;" horiz-adv-x="478" 
d="M204 607l-80 153h139l61 -153h-120zM428 375v-375h-130v42q-48 -46 -111 -46q-70 0 -113.5 43t-43.5 117q0 84 54.5 127.5t153.5 43.5h60v44q0 29 -18 46.5t-47 17.5t-46.5 -17.5t-17.5 -46.5h-130q0 87 53.5 140.5t140.5 53.5t140 -52t55 -138zM215 114q33 0 58 21.5
t25 54.5v29h-24q-18 0 -27.5 -0.5t-28 -3t-29 -7.5t-19 -16t-8.5 -27q0 -24 14.5 -37.5t38.5 -13.5z" />
    <glyph glyph-name="aacute" unicode="&#xe1;" horiz-adv-x="478" 
d="M295 607h-120l61 153h139zM428 375v-375h-130v42q-48 -46 -111 -46q-70 0 -113.5 43t-43.5 117q0 84 54.5 127.5t153.5 43.5h60v44q0 29 -18 46.5t-47 17.5t-46.5 -17.5t-17.5 -46.5h-130q0 87 53.5 140.5t140.5 53.5t140 -52t55 -138zM215 114q33 0 58 21.5t25 54.5v29
h-24q-18 0 -27.5 -0.5t-28 -3t-29 -7.5t-19 -16t-8.5 -27q0 -24 14.5 -37.5t38.5 -13.5z" />
    <glyph glyph-name="acircumflex" unicode="&#xe2;" horiz-adv-x="478" 
d="M207 607h-120l61 153h169l62 -153h-121l-25 116zM428 375v-375h-130v42q-48 -46 -111 -46q-70 0 -113.5 43t-43.5 117q0 84 54.5 127.5t153.5 43.5h60v44q0 29 -18 46.5t-47 17.5t-46.5 -17.5t-17.5 -46.5h-130q0 87 53.5 140.5t140.5 53.5t140 -52t55 -138zM215 114
q33 0 58 21.5t25 54.5v29h-24q-18 0 -27.5 -0.5t-28 -3t-29 -7.5t-19 -16t-8.5 -27q0 -24 14.5 -37.5t38.5 -13.5z" />
    <glyph glyph-name="egrave" unicode="&#xe8;" horiz-adv-x="489" 
d="M216 607l-80 153h139l61 -153h-120zM245 565q80 0 137 -57t57 -137v-129h-259v-52q0 -33 18.5 -51t46.5 -18q29 0 49 18.5t20 50.5h125q0 -80 -59.5 -137t-140.5 -57q-86 0 -137.5 55.5t-51.5 138.5v181q0 80 57 137t138 57zM314 350v21q0 32 -20.5 51.5t-48.5 19.5
q-27 0 -46 -19t-19 -52v-21h134z" />
    <glyph glyph-name="eacute" unicode="&#xe9;" horiz-adv-x="489" 
d="M307 607h-120l61 153h139zM245 565q80 0 137 -57t57 -137v-129h-259v-52q0 -33 18.5 -51t46.5 -18q29 0 49 18.5t20 50.5h125q0 -80 -59.5 -137t-140.5 -57q-86 0 -137.5 55.5t-51.5 138.5v181q0 80 57 137t138 57zM314 350v21q0 32 -20.5 51.5t-48.5 19.5q-27 0 -46 -19
t-19 -52v-21h134z" />
    <glyph glyph-name="ecircumflex" unicode="&#xea;" horiz-adv-x="489" 
d="M219 607h-120l61 153h169l62 -153h-121l-25 116zM245 565q80 0 137 -57t57 -137v-129h-259v-52q0 -33 18.5 -51t46.5 -18q29 0 49 18.5t20 50.5h125q0 -80 -59.5 -137t-140.5 -57q-86 0 -137.5 55.5t-51.5 138.5v181q0 80 57 137t138 57zM314 350v21q0 32 -20.5 51.5
t-48.5 19.5q-27 0 -46 -19t-19 -52v-21h134z" />
    <glyph glyph-name="edieresis" unicode="&#xeb;" horiz-adv-x="489" 
d="M161 629q-27 0 -45.5 17t-18.5 40t18.5 39.5t45.5 16.5t46 -16.5t19 -39.5t-19 -40t-46 -17zM327 629q-27 0 -45.5 17t-18.5 40t18.5 39.5t45.5 16.5t46 -16.5t19 -39.5t-19 -40t-46 -17zM245 565q80 0 137 -57t57 -137v-129h-259v-52q0 -33 18.5 -51t46.5 -18
q29 0 49 18.5t20 50.5h125q0 -80 -59.5 -137t-140.5 -57q-86 0 -137.5 55.5t-51.5 138.5v181q0 80 57 137t138 57zM314 350v21q0 32 -20.5 51.5t-48.5 19.5q-27 0 -46 -19t-19 -52v-21h134z" />
    <glyph glyph-name="circumflex" unicode="&#x2c6;" horiz-adv-x="497" 
d="M284 607l-25 116l-26 -116h-120l61 153h169l62 -153h-121z" />
    <glyph glyph-name="endash" unicode="&#x2013;" horiz-adv-x="600" 
d="M50 361h500v-129h-500v129z" />
    <glyph glyph-name="emdash" unicode="&#x2014;" horiz-adv-x="876" 
d="M50 361h776v-129h-776v129z" />
    <glyph glyph-name="quoteleft" unicode="&#x2018;" horiz-adv-x="291" 
d="M40 483l93 258h128l-74 -258h-147z" />
    <glyph glyph-name="quoteright" unicode="&#x2019;" horiz-adv-x="291" 
d="M251 741l-93 -258h-128l74 258h147z" />
    <glyph glyph-name="quotedblleft" unicode="&#x201c;" horiz-adv-x="455" 
d="M40 483l111 258h109l-74 -258h-146zM223 483l93 258h109l-55 -258h-147z" />
    <glyph glyph-name="quotedblright" unicode="&#x201d;" horiz-adv-x="455" 
d="M232 741l-93 -258h-109l55 258h147zM415 741l-111 -258h-109l74 258h146z" />
    <glyph glyph-name="bullet" unicode="&#x2022;" horiz-adv-x="478" 
d="M239 444q61 0 105 -43t44 -103q0 -61 -44 -105t-105 -44q-62 0 -105.5 43.5t-43.5 105.5q0 61 43.5 103.5t105.5 42.5z" />
    <glyph glyph-name="ellipsis" unicode="&#x2026;" horiz-adv-x="750" 
d="M133 185q38 0 65.5 -27t27.5 -65t-27.5 -65.5t-65.5 -27.5q-39 0 -66 27.5t-27 65.5t27 65t66 27zM375 185q38 0 65.5 -27t27.5 -65t-27.5 -65.5t-65.5 -27.5q-39 0 -66 27.5t-27 65.5t27 65t66 27zM617 185q38 0 65.5 -27t27.5 -65t-27.5 -65.5t-65.5 -27.5
q-39 0 -66 27.5t-27 65.5t27 65t66 27z" />
    </font>
</defs>
</svg>
